<?xml version="1.0" encoding="UTF-8"?>
<svg version="1.1" xmlns="http://www.w3.org/2000/svg" width="1800" height="400">
<path d="M0 0 C594 0 1188 0 1800 0 C1800 132 1800 264 1800 400 C1206 400 612 400 0 400 C0 268 0 136 0 0 Z " fill="#0F0F0F" transform="translate(0,0)"/>
<path d="M0 0 C4.09227707 2.29167516 4.87258609 3.74517219 7 8 C7 11.3 7 14.6 7 18 C0.07 18 -6.86 18 -14 18 C-10.86824314 23.77260299 -10.86824314 23.77260299 -8 25 C-5.795636 25.22950319 -3.58607827 25.41075933 -1.375 25.5625 C-0.18648437 25.64628906 1.00203125 25.73007813 2.2265625 25.81640625 C3.59941406 25.90728516 3.59941406 25.90728516 5 26 C5 27.65 5 29.3 5 31 C2.45716766 31.10871967 -0.08095088 31.18762401 -2.625 31.25 C-3.33785156 31.28351563 -4.05070313 31.31703125 -4.78515625 31.3515625 C-10.00252079 31.44729396 -12.84990464 30.4250787 -17 27 C-20.98726005 21.68365326 -20.7953163 15.37127016 -20 9 C-15.53222787 -0.09510754 -9.51248116 -1.18418028 0 0 Z " fill="#DADADA" transform="translate(872,158)"/>
<path d="M0 0 C2.31 0 4.62 0 7 0 C7.33 4.95 7.66 9.9 8 15 C8.66 14.34 9.32 13.68 10 13 C13.38350489 12.4310921 16.61391382 12.46227248 20 13 C22.82424288 15.19022918 24.41508603 16.83017207 26 20 C26.08471364 21.81341842 26.10721083 23.62994161 26.09765625 25.4453125 C26.09443359 26.52167969 26.09121094 27.59804687 26.08789062 28.70703125 C26.07951172 29.83496094 26.07113281 30.96289062 26.0625 32.125 C26.05798828 33.26066406 26.05347656 34.39632812 26.04882812 35.56640625 C26.03701615 38.37765638 26.02054507 41.1888023 26 44 C24.02 44 22.04 44 20 44 C19.98018066 43.34926514 19.96036133 42.69853027 19.93994141 42.02807617 C19.84470701 39.08080849 19.73502182 36.13425115 19.625 33.1875 C19.5940625 32.16333984 19.563125 31.13917969 19.53125 30.08398438 C19.49257813 29.10107422 19.45390625 28.11816406 19.4140625 27.10546875 C19.36693115 25.74651489 19.36693115 25.74651489 19.31884766 24.36010742 C19.13972081 21.73474608 19.13972081 21.73474608 17 19 C13.5 18.58333333 13.5 18.58333333 10 19 C7.43863779 21.56136221 7.70333143 22.66561331 7.5859375 26.2265625 C7.54726563 27.2578125 7.50859375 28.2890625 7.46875 29.3515625 C7.42234375 30.97191406 7.42234375 30.97191406 7.375 32.625 C7.33632813 33.71296875 7.29765625 34.8009375 7.2578125 35.921875 C7.16333753 38.61441165 7.07777569 41.30693757 7 44 C4.69 44 2.38 44 0 44 C0 29.48 0 14.96 0 0 Z " fill="#CCCCCC" transform="translate(958,145)"/>
<path d="M0 0 C1.98 0 3.96 0 6 0 C6 3.3 6 6.6 6 10 C10.62 10 15.24 10 20 10 C20 11.65 20 13.3 20 15 C13.565 15.495 13.565 15.495 7 16 C6.91882049 18.41734542 6.85943074 20.83194949 6.8125 23.25 C6.78736328 23.93191406 6.76222656 24.61382812 6.73632812 25.31640625 C6.69196366 28.36276607 6.84224037 30.66742564 8.15625 33.4375 C10.65815168 35.55775566 12.44202984 35.59727199 15.6875 35.75 C17.17830078 35.83507812 17.17830078 35.83507812 18.69921875 35.921875 C19.83810547 35.96054688 19.83810547 35.96054688 21 36 C21 37.65 21 39.3 21 41 C18.60225255 41.13572155 16.21224755 41.23436868 13.8125 41.3125 C12.80219727 41.3753418 12.80219727 41.3753418 11.77148438 41.43945312 C7.82615958 41.53568056 6.19490539 41.15535183 3.07421875 38.66796875 C0.50821252 35.36743719 -0.12822747 33.05425373 -0.09765625 28.98828125 C-0.09443359 28.23095703 -0.09121094 27.47363281 -0.08789062 26.69335938 C-0.07951172 25.90767578 -0.07113281 25.12199219 -0.0625 24.3125 C-0.05798828 23.51521484 -0.05347656 22.71792969 -0.04882812 21.89648438 C-0.0370585 19.93095743 -0.01912348 17.96546915 0 16 C-2.64 16 -5.28 16 -8 16 C-8 14.02 -8 12.04 -8 10 C-5.36 10 -2.72 10 0 10 C0 6.7 0 3.4 0 0 Z " fill="#DCDCDC" transform="translate(893,148)"/>
<path d="M0 0 C0.74507812 0.00451172 1.49015625 0.00902344 2.2578125 0.01367188 C4.0885764 0.02540754 5.91929873 0.0433415 7.75 0.0625 C7.75 1.7125 7.75 3.3625 7.75 5.0625 C6.76257813 5.12308594 5.77515625 5.18367187 4.7578125 5.24609375 C3.47648438 5.32988281 2.19515625 5.41367188 0.875 5.5 C-0.40117188 5.58121094 -1.67734375 5.66242188 -2.9921875 5.74609375 C-6.13300152 5.85456027 -6.13300152 5.85456027 -8.25 7.0625 C-8.90213292 9.08713255 -8.90213292 9.08713255 -9.25 11.0625 C-8.52554688 11.16046875 -7.80109375 11.2584375 -7.0546875 11.359375 C-0.65571943 12.34908206 4.0607271 13.3732271 8.75 18.0625 C9.11860081 21.09590339 9.15472839 24.03250635 8.75 27.0625 C6.26751082 29.8017984 3.49030711 30.96336453 -0.24291992 31.17602539 C-0.98131104 31.17078857 -1.71970215 31.16555176 -2.48046875 31.16015625 C-3.28291016 31.15693359 -4.08535156 31.15371094 -4.91210938 31.15039062 C-5.74548828 31.14201172 -6.57886719 31.13363281 -7.4375 31.125 C-8.28248047 31.12048828 -9.12746094 31.11597656 -9.99804688 31.11132812 C-12.08206155 31.09955403 -14.16603977 31.0816189 -16.25 31.0625 C-16.25 29.0825 -16.25 27.1025 -16.25 25.0625 C-15.11820313 25.07410156 -13.98640625 25.08570313 -12.8203125 25.09765625 C-11.33854331 25.10703454 -9.85677235 25.1161347 -8.375 25.125 C-7.62863281 25.13337891 -6.88226562 25.14175781 -6.11328125 25.15039062 C-2.05154422 25.26938084 -2.05154422 25.26938084 1.75 24.0625 C1.75 22.7425 1.75 21.4225 1.75 20.0625 C0.78578125 19.82015625 -0.1784375 19.5778125 -1.171875 19.328125 C-3.06679688 18.82539063 -3.06679688 18.82539063 -5 18.3125 C-6.25296875 17.98765625 -7.5059375 17.6628125 -8.796875 17.328125 C-12.32330095 16.03563404 -13.975227 15.00731752 -16.25 12.0625 C-16.90739689 8.20029328 -16.57753291 6.58889218 -14.5 3.25 C-10.35059752 -0.7841413 -5.51970022 -0.06338878 0 0 Z " fill="#DBDBDB" transform="translate(834.25,157.9375)"/>
<path d="M0 0 C0.99 0 1.98 0 3 0 C4.32 0 5.64 0 7 0 C7.08736736 3.72901814 7.14051482 7.45777165 7.1875 11.1875 C7.21263672 12.24259766 7.23777344 13.29769531 7.26367188 14.38476562 C7.27333984 15.40634766 7.28300781 16.42792969 7.29296875 17.48046875 C7.3086792 18.41785889 7.32438965 19.35524902 7.34057617 20.32104492 C6.93263426 23.52989552 5.86857944 25.38455977 4 28 C0.94869622 30.14104088 -1.58212528 30.22152302 -5.25 30.125 C-6.14203125 30.10695313 -7.0340625 30.08890625 -7.953125 30.0703125 C-8.62859375 30.04710937 -9.3040625 30.02390625 -10 30 C-10 28.68 -10 27.36 -10 26 C-6.04 25.67 -2.08 25.34 2 25 C2 23.02 2 21.04 2 19 C1.34 19.66 0.68 20.32 0 21 C-3.36711191 21.36599043 -5.34060899 21.37424895 -8.3125 19.6875 C-11.10681575 16.89318425 -11.22556762 13.90678877 -11.375 10.125 C-11.32980611 6.26092266 -11.13193582 5.19402326 -8.875 1.875 C-5.53167327 -0.30543047 -3.91250466 -0.42527225 0 0 Z " fill="#D0D0D0" transform="translate(843,231)"/>
<path d="M0 0 C2.58550279 1.05540132 3.91715784 2.09568717 6 4 C5.67 5.32 5.34 6.64 5 8 C3.25 8.6875 3.25 8.6875 1 9 C0.1028125 8.2884375 0.1028125 8.2884375 -0.8125 7.5625 C-3.98867791 5.2938015 -6.19135871 5.52391984 -10 6 C-12.64237846 7.22435155 -12.64237846 7.22435155 -14 10 C-14.87499309 14.8950085 -14.72846861 18.67796438 -12.3125 23.0625 C-7.17652686 26.06655976 -1.8550915 25.90570131 4 26 C4.33 27.65 4.66 29.3 5 31 C2.29057607 31.10861833 -0.414439 31.18758577 -3.125 31.25 C-3.88554688 31.28351563 -4.64609375 31.31703125 -5.4296875 31.3515625 C-10.77567673 31.44373473 -13.82361536 30.64349283 -18 27 C-21.85427421 22.13919559 -21.60300743 17.39579865 -21.49609375 11.40234375 C-20.79209568 6.5741365 -18.84848953 3.90132242 -15 1 C-10.59444115 -1.20277942 -4.79471309 -0.44750656 0 0 Z " fill="#DBDBDB" transform="translate(944,158)"/>
<path d="M0 0 C2.09375 0.69921875 2.09375 0.69921875 4.65625 2.76171875 C6.52315602 6.57670062 6.79441667 9.52898581 6.09375 13.69921875 C4.82890069 16.60837215 3.83924933 18.15937441 1.28125 20.01171875 C-1.65959137 20.93598318 -3.83981536 21.08252308 -6.90625 20.69921875 C-9.86735338 18.29832412 -11.70345557 16.33605947 -12.1796875 12.4921875 C-12.35452172 8.00701733 -12.34610335 5.42284846 -9.96875 1.51171875 C-6.24764946 -0.69056524 -4.18306793 -0.75992401 0 0 Z " fill="#D2D2D2" transform="translate(1336.90625,231.30078125)"/>
<path d="M0 0 C0.78246094 0.05542969 1.56492187 0.11085937 2.37109375 0.16796875 C4.5625 0.8125 4.5625 0.8125 6.32421875 2.51953125 C7.82679354 5.30190161 7.96346562 7.16200438 7.9375 10.3125 C7.94523437 11.2509375 7.95296875 12.189375 7.9609375 13.15625 C7.49422646 16.26765693 6.79733655 17.61258277 4.5625 19.8125 C1.56324694 20.94143233 -1.25604376 21.11948262 -4.4375 20.8125 C-7.63322844 18.81516973 -8.97676723 17.29829502 -10.09765625 13.68359375 C-10.8527988 9.35068843 -10.69159599 7.30316812 -8.625 3.3125 C-5.65124347 -0.08607889 -4.34512894 -0.37814751 0 0 Z " fill="#D3D3D3" transform="translate(1264.4375,231.1875)"/>
<path d="M0 0 C0.78246094 0.05542969 1.56492187 0.11085937 2.37109375 0.16796875 C4.5625 0.8125 4.5625 0.8125 6.32421875 2.51953125 C7.82679354 5.30190161 7.96346562 7.16200438 7.9375 10.3125 C7.94523438 11.2509375 7.95296875 12.189375 7.9609375 13.15625 C7.49422646 16.26765693 6.79733655 17.61258277 4.5625 19.8125 C1.56324694 20.94143233 -1.25604376 21.11948262 -4.4375 20.8125 C-7.63322844 18.81516973 -8.97676723 17.29829502 -10.09765625 13.68359375 C-10.8527988 9.35068843 -10.69159599 7.30316812 -8.625 3.3125 C-5.65124347 -0.08607889 -4.34512894 -0.37814751 0 0 Z " fill="#D3D3D3" transform="translate(561.4375,231.1875)"/>
<path d="M0 0 C3.97245401 0.70936679 5.67231707 1.79731707 8.5 4.625 C10.22869779 8.08239557 9.98966895 11.84475568 9.5 15.625 C7.70606332 18.49529869 6.51736724 20.11631638 3.5 21.625 C-2.74259681 22.20301822 -2.74259681 22.20301822 -5.875 19.8125 C-8.4739001 16.31398063 -8.91174594 13.02133931 -8.83984375 8.69921875 C-8.00759844 3.61965257 -5.07244976 0.9057946 0 0 Z " fill="#D6D6D6" transform="translate(1122.5,230.375)"/>
<path d="M0 0 C1.4540625 0.0309375 1.4540625 0.0309375 2.9375 0.0625 C4.11297401 3.97657837 5.27634223 7.89415293 6.4375 11.8125 C6.77136719 12.92367187 7.10523438 14.03484375 7.44921875 15.1796875 C7.76503906 16.24960938 8.08085937 17.31953125 8.40625 18.421875 C8.69951172 19.40639648 8.99277344 20.39091797 9.29492188 21.40527344 C9.9375 24.0625 9.9375 24.0625 9.9375 28.0625 C8.6175 28.0625 7.2975 28.0625 5.9375 28.0625 C5.6075 25.7525 5.2775 23.4425 4.9375 21.0625 C1.6375 21.0625 -1.6625 21.0625 -5.0625 21.0625 C-5.7225 23.3725 -6.3825 25.6825 -7.0625 28.0625 C-8.3825 28.0625 -9.7025 28.0625 -11.0625 28.0625 C-9.92972118 21.57476674 -8.35067432 15.31348109 -6.5 9 C-6.16705933 7.85640015 -6.16705933 7.85640015 -5.82739258 6.68969727 C-3.85911343 0.07875742 -3.85911343 0.07875742 0 0 Z " fill="#D0D0D0" transform="translate(303.0625,223.9375)"/>
<path d="M0 0 C7.99651568 -0.6271777 7.99651568 -0.6271777 12 1.875 C15.1457309 5.21733908 15.11478296 7.12866569 15.0625 11.625 C15.05347656 12.62789062 15.04445313 13.63078125 15.03515625 14.6640625 C15.02355469 15.43492187 15.01195312 16.20578125 15 17 C15.99 17 16.98 17 18 17 C18 18.32 18 19.64 18 21 C15.69 21 13.38 21 11 21 C10.67 20.34 10.34 19.68 10 19 C9.01 19.66 8.02 20.32 7 21 C3.3619182 21.46443597 1.64265646 21.42843764 -1.4375 19.375 C-3 17 -3 17 -3 13.9375 C-2 11 -2 11 -0.5 9.125 C3.27407041 7.42666832 6.92484671 7.764895 11 8 C9.37921338 4.82990528 9.37921338 4.82990528 6.8359375 4.48828125 C6.02382812 4.43027344 5.21171875 4.37226563 4.375 4.3125 C3.55773438 4.24675781 2.74046875 4.18101562 1.8984375 4.11328125 C1.27195312 4.07589844 0.64546875 4.03851563 0 4 C0 2.68 0 1.36 0 0 Z " fill="#D0D0D0" transform="translate(1186,231)"/>
<path d="M0 0 C3.5985297 0.57833513 5.62270249 1.36221367 8.5 3.5625 C9.5 5.5625 9.5 5.5625 9.5 12.5625 C4.88 12.5625 0.26 12.5625 -4.5 12.5625 C-2.05384754 16.70425049 -2.05384754 16.70425049 0.98046875 17.171875 C2.32044922 17.24148437 2.32044922 17.24148437 3.6875 17.3125 C4.58855469 17.36921875 5.48960937 17.4259375 6.41796875 17.484375 C7.10503906 17.51015625 7.79210937 17.5359375 8.5 17.5625 C8.5 18.8825 8.5 20.2025 8.5 21.5625 C-1.4540412 22.19007528 -1.4540412 22.19007528 -5.625 19.6875 C-8.74969428 16.14617982 -8.90671972 13.49411165 -8.83984375 8.89453125 C-8.0753711 3.64866723 -5.30908478 0.85324577 0 0 Z " fill="#D3D3D3" transform="translate(981.5,230.4375)"/>
<path d="M0 0 C3.5060303 0.86943897 4.94966563 2.56083702 6.9375 5.48046875 C6.9375 7.79046875 6.9375 10.10046875 6.9375 12.48046875 C2.3175 12.48046875 -2.3025 12.48046875 -7.0625 12.48046875 C-6.7325 13.80046875 -6.4025 15.12046875 -6.0625 16.48046875 C-2.1025 16.81046875 1.8575 17.14046875 5.9375 17.48046875 C5.9375 18.80046875 5.9375 20.12046875 5.9375 21.48046875 C-4.0165412 22.10804403 -4.0165412 22.10804403 -8.1875 19.60546875 C-11.49440855 15.85763906 -11.46886235 12.83510709 -11.3984375 7.96875 C-11.0625 5.48046875 -11.0625 5.48046875 -9.0625 2.35546875 C-5.74736477 0.28350923 -3.84497973 -0.26943987 0 0 Z " fill="#D2D2D2" transform="translate(750.0625,230.51953125)"/>
<path d="M0 0 C3.5985297 0.57833513 5.62270249 1.36221367 8.5 3.5625 C9.5 5.5625 9.5 5.5625 9.5 12.5625 C4.88 12.5625 0.26 12.5625 -4.5 12.5625 C-2.05384754 16.70425049 -2.05384754 16.70425049 0.98046875 17.171875 C2.32044922 17.24148437 2.32044922 17.24148437 3.6875 17.3125 C4.58855469 17.36921875 5.48960937 17.4259375 6.41796875 17.484375 C7.10503906 17.51015625 7.79210937 17.5359375 8.5 17.5625 C8.5 18.8825 8.5 20.2025 8.5 21.5625 C-1.4540412 22.19007528 -1.4540412 22.19007528 -5.625 19.6875 C-8.74969428 16.14617982 -8.90671972 13.49411165 -8.83984375 8.89453125 C-8.0753711 3.64866723 -5.30908478 0.85324577 0 0 Z " fill="#D3D3D3" transform="translate(653.5,230.4375)"/>
<path d="M0 0 C4.06037168 0.02323532 4.96640463 0.1550689 8.3125 2.75 C11.06713846 6.48209082 11.37181089 8.23093093 11.34765625 12.8203125 C11.34443359 13.89667969 11.34121094 14.97304687 11.33789062 16.08203125 C11.32951172 17.20996094 11.32113281 18.33789062 11.3125 19.5 C11.30798828 20.63566406 11.30347656 21.77132812 11.29882812 22.94140625 C11.28701615 25.75265638 11.27054507 28.5638023 11.25 31.375 C9.27 31.375 7.29 31.375 5.25 31.375 C5.23018066 30.72426514 5.21036133 30.07353027 5.18994141 29.40307617 C5.09470701 26.45580849 4.98502182 23.50925115 4.875 20.5625 C4.8440625 19.53833984 4.813125 18.51417969 4.78125 17.45898438 C4.74257813 16.47607422 4.70390625 15.49316406 4.6640625 14.48046875 C4.6326416 13.57449951 4.6012207 12.66853027 4.56884766 11.73510742 C4.38972081 9.10974608 4.38972081 9.10974608 2.25 6.375 C0.05545319 5.79506301 0.05545319 5.79506301 -2.375 5.6875 C-3.19226563 5.62175781 -4.00953125 5.55601562 -4.8515625 5.48828125 C-5.47804688 5.45089844 -6.10453125 5.41351563 -6.75 5.375 C-5.65791272 0.53861346 -4.98371738 0.19168144 0 0 Z " fill="#D9D9D9" transform="translate(972.75,157.625)"/>
<path d="M0 0 C1.32 0 2.64 0 4 0 C5.98 4.95 7.96 9.9 10 15 C11.91539047 10.03739743 13.60961435 5.13373162 15 0 C16.65 0 18.3 0 20 0 C14.02520259 23.80203845 14.02520259 23.80203845 9.0625 28.375 C5.71003405 30.15385949 3.73907142 30.44512755 0 30 C0 28.68 0 27.36 0 26 C1.11375 25.731875 2.2275 25.46375 3.375 25.1875 C7.21840951 24.34190981 7.21840951 24.34190981 9 21 C8.34 21 7.68 21 7 21 C5.82504857 18.06574629 4.66149148 15.12710487 3.5 12.1875 C3.16613281 11.35412109 2.83226562 10.52074219 2.48828125 9.66210938 C2.17246094 8.85966797 1.85664062 8.05722656 1.53125 7.23046875 C1.23798828 6.49207764 0.94472656 5.75368652 0.64257812 4.99291992 C0 3 0 3 0 0 Z " fill="#D3D3D3" transform="translate(902,231)"/>
<path d="M0 0 C2.32421875 0.05859375 2.32421875 0.05859375 5 1 C6.22126406 3.43951265 7.04460207 5.48689482 7.8125 8.0625 C8.02841797 8.72572266 8.24433594 9.38894531 8.46679688 10.07226562 C8.99663758 11.70888468 9.5008206 13.35377006 10 15 C12.57146057 12.42853943 12.80117997 10.3949583 13.625 6.875 C13.88539063 5.77929688 14.14578125 4.68359375 14.4140625 3.5546875 C14.60742188 2.71164063 14.80078125 1.86859375 15 1 C16.65 0.67 18.3 0.34 20 0 C15.56207471 22.37002993 15.56207471 22.37002993 8 29 C5.29120665 30.35439668 2.99066732 30.06501451 0 30 C0 28.68 0 27.36 0 26 C1.11375 25.71125 2.2275 25.4225 3.375 25.125 C7.00291092 24.30758671 7.00291092 24.30758671 9 22 C8.57074219 21.33355469 8.14148438 20.66710937 7.69921875 19.98046875 C5.72862262 16.52399784 4.26459399 13.0090652 2.8125 9.3125 C2.40354492 8.29833008 2.40354492 8.29833008 1.98632812 7.26367188 C0 2.26051457 0 2.26051457 0 0 Z " fill="#D3D3D3" transform="translate(480,231)"/>
<path d="M0 0 C0 1.32 0 2.64 0 4 C-1.11375 4.12375 -2.2275 4.2475 -3.375 4.375 C-7.03103677 4.6465813 -7.03103677 4.6465813 -9 7 C-9.39764263 8.98821313 -9.73775349 10.98944339 -10 13 C-7.03 13 -4.06 13 -1 13 C-1 14.32 -1 15.64 -1 17 C-3.97 17 -6.94 17 -10 17 C-10 20.96 -10 24.92 -10 29 C-11.32 29 -12.64 29 -14 29 C-14 25.04 -14 21.08 -14 17 C-16.31 17 -18.62 17 -21 17 C-21 15.68 -21 14.36 -21 13 C-18.69 13 -16.38 13 -14 13 C-14.0825 11.948125 -14.165 10.89625 -14.25 9.8125 C-13.96269651 5.43112175 -13.05154419 4.05154419 -10 1 C-6.78548731 -0.60725635 -3.56387464 -0.05748185 0 0 Z " fill="#D2D2D2" transform="translate(547,223)"/>
<path d="M0 0 C2.475 0.495 2.475 0.495 5 1 C6.7325 0.62875 6.7325 0.62875 8.5 0.25 C12 0 12 0 14.69921875 1.96484375 C17.71383318 5.94167806 17.59285004 8.48616627 17.3125 13.3125 C17.28994141 14.05306641 17.26738281 14.79363281 17.24414062 15.55664062 C17.1855815 17.37197357 17.09590886 19.18625681 17 21 C15.35 21 13.7 21 12 21 C11.67 15.72 11.34 10.44 11 5 C9.35 5 7.7 5 6 5 C4.00383446 6.99616554 4.59016573 10.81701963 4.4375 13.5625 C4.39431641 14.27341797 4.35113281 14.98433594 4.30664062 15.71679688 C4.20028223 17.47761912 4.09961154 19.2387832 4 21 C2.68 21 1.36 21 0 21 C0 14.07 0 7.14 0 0 Z " fill="#C4C4C4" transform="translate(1349,231)"/>
<path d="M0 0 C2.475 0.495 2.475 0.495 5 1 C6.7325 0.62875 6.7325 0.62875 8.5 0.25 C12 0 12 0 14.69921875 1.96484375 C17.71383318 5.94167806 17.59285004 8.48616627 17.3125 13.3125 C17.28994141 14.05306641 17.26738281 14.79363281 17.24414062 15.55664062 C17.1855815 17.37197357 17.09590886 19.18625681 17 21 C15.35 21 13.7 21 12 21 C11.67 15.72 11.34 10.44 11 5 C9.35 5 7.7 5 6 5 C4.00383446 6.99616554 4.59016573 10.81701963 4.4375 13.5625 C4.39431641 14.27341797 4.35113281 14.98433594 4.30664062 15.71679688 C4.20028223 17.47761912 4.09961154 19.2387832 4 21 C2.68 21 1.36 21 0 21 C0 14.07 0 7.14 0 0 Z " fill="#C4C4C4" transform="translate(810,231)"/>
<path d="M0 0 C0 1.32 0 2.64 0 4 C-2.05078125 4.22786458 -4.1015625 4.45572917 -6.15234375 4.68359375 C-8.01140229 4.81886614 -8.01140229 4.81886614 -9 6 C-9.36760731 8.32817964 -9.70241581 10.6618385 -10 13 C-7.36 13 -4.72 13 -2 13 C-2 14.32 -2 15.64 -2 17 C-4.64 17 -7.28 17 -10 17 C-10 20.96 -10 24.92 -10 29 C-11.32 29 -12.64 29 -14 29 C-14 25.04 -14 21.08 -14 17 C-16.31 17 -18.62 17 -21 17 C-21 15.68 -21 14.36 -21 13 C-18.69 13 -16.38 13 -14 13 C-14.103125 11.783125 -14.20625 10.56625 -14.3125 9.3125 C-14.28822937 5.89640838 -14.01403171 5.02172652 -12.0625 2 C-7.95087582 -0.68514232 -4.77247406 -0.46788961 0 0 Z " fill="#D1D1D1" transform="translate(1110,223)"/>
<path d="M0 0 C1.32 0 2.64 0 4 0 C4.33 5.28 4.66 10.56 5 16 C6.65 16 8.3 16 10 16 C11.99616554 14.00383446 11.40983427 10.18298037 11.5625 7.4375 C11.60568359 6.72658203 11.64886719 6.01566406 11.69335938 5.28320312 C11.79971777 3.52238088 11.90038846 1.7612168 12 0 C13.32 0 14.64 0 16 0 C16 5.61 16 11.22 16 17 C16.99 17 17.98 17 19 17 C19 18.32 19 19.64 19 21 C16.69 21 14.38 21 12 21 C11.67 20.34 11.34 19.68 11 19 C10.34 19.66 9.68 20.32 9 21 C3.7451829 21.5590231 3.7451829 21.5590231 1.3269043 19.74487305 C-0.32253864 17.57586317 -0.35040401 16.46898855 -0.29296875 13.76953125 C-0.28330078 12.96708984 -0.27363281 12.16464844 -0.26367188 11.33789062 C-0.23853516 10.50451172 -0.21339844 9.67113281 -0.1875 8.8125 C-0.17396484 7.96751953 -0.16042969 7.12253906 -0.14648438 6.25195312 C-0.11115799 4.16769616 -0.05735139 2.08376723 0 0 Z " fill="#D0D0D0" transform="translate(1466,231)"/>
<path d="M0 0 C1.32 0 2.64 0 4 0 C4.33 5.28 4.66 10.56 5 16 C6.65 16 8.3 16 10 16 C11.99616554 14.00383446 11.40983427 10.18298037 11.5625 7.4375 C11.60568359 6.72658203 11.64886719 6.01566406 11.69335938 5.28320312 C11.79971777 3.52238088 11.90038846 1.7612168 12 0 C13.32 0 14.64 0 16 0 C16 5.61 16 11.22 16 17 C16.99 17 17.98 17 19 17 C19 18.32 19 19.64 19 21 C16.69 21 14.38 21 12 21 C11.67 20.34 11.34 19.68 11 19 C10.34 19.66 9.68 20.32 9 21 C3.7451829 21.5590231 3.7451829 21.5590231 1.3269043 19.74487305 C-0.32253864 17.57586317 -0.35040401 16.46898855 -0.29296875 13.76953125 C-0.28330078 12.96708984 -0.27363281 12.16464844 -0.26367188 11.33789062 C-0.23853516 10.50451172 -0.21339844 9.67113281 -0.1875 8.8125 C-0.17396484 7.96751953 -0.16042969 7.12253906 -0.14648438 6.25195312 C-0.11115799 4.16769616 -0.05735139 2.08376723 0 0 Z " fill="#D0D0D0" transform="translate(341,231)"/>
<path d="M0 0 C1.32 0 2.64 0 4 0 C4 1.98 4 3.96 4 6 C6.97 6 9.94 6 13 6 C13 7.32 13 8.64 13 10 C10.03 10 7.06 10 4 10 C4.33 13.96 4.66 17.92 5 22 C7.97 22.33 10.94 22.66 14 23 C14 24.32 14 25.64 14 27 C5.05038429 27.61485909 5.05038429 27.61485909 1.4375 25.5 C-1.06026693 21.15605751 -1.27719822 16.90078782 -0.5625 12 C-0.376875 11.34 -0.19125 10.68 0 10 C-1.98 10 -3.96 10 -6 10 C-6 8.68 -6 7.36 -6 6 C-4.02 6 -2.04 6 0 6 C0 4.02 0 2.04 0 0 Z " fill="#D1D1D1" transform="translate(1212,225)"/>
<path d="M0 0 C1.32 0 2.64 0 4 0 C4 1.98 4 3.96 4 6 C6.97 6 9.94 6 13 6 C13 7.32 13 8.64 13 10 C10.03 10 7.06 10 4 10 C4.33 13.96 4.66 17.92 5 22 C7.97 22.33 10.94 22.66 14 23 C14 24.32 14 25.64 14 27 C5.05038429 27.61485909 5.05038429 27.61485909 1.4375 25.5 C-1.06026693 21.15605751 -1.27719822 16.90078782 -0.5625 12 C-0.376875 11.34 -0.19125 10.68 0 10 C-1.98 10 -3.96 10 -6 10 C-6 8.68 -6 7.36 -6 6 C-4.02 6 -2.04 6 0 6 C0 4.02 0 2.04 0 0 Z " fill="#D1D1D1" transform="translate(673,225)"/>
<path d="M0 0 C1.32 0 2.64 0 4 0 C4 1.98 4 3.96 4 6 C6.97 6 9.94 6 13 6 C13 7.32 13 8.64 13 10 C10.03 10 7.06 10 4 10 C4.33 13.96 4.66 17.92 5 22 C7.97 22.33 10.94 22.66 14 23 C14 24.32 14 25.64 14 27 C5.05038429 27.61485909 5.05038429 27.61485909 1.4375 25.5 C-1.06026693 21.15605751 -1.27719822 16.90078782 -0.5625 12 C-0.376875 11.34 -0.19125 10.68 0 10 C-1.98 10 -3.96 10 -6 10 C-6 8.68 -6 7.36 -6 6 C-4.02 6 -2.04 6 0 6 C0 4.02 0 2.04 0 0 Z " fill="#D1D1D1" transform="translate(462,225)"/>
<path d="M0 0 C2.64 0 5.28 0 8 0 C8.33 0.66 8.66 1.32 9 2 C9.66 1.34 10.32 0.68 11 0 C15.05261287 -0.34490322 16.54754176 -0.30163882 20 2 C20.1875 4.625 20.1875 4.625 20 7 C18.68 7 17.36 7 16 7 C16 6.01 16 5.02 16 4 C14.02 4.66 12.04 5.32 10 6 C9.34 9.63 8.68 13.26 8 17 C9.98 17 11.96 17 14 17 C14 18.32 14 19.64 14 21 C9.05 21 4.1 21 -1 21 C-1 19.68 -1 18.36 -1 17 C0.65 17 2.3 17 4 17 C4 12.71 4 8.42 4 4 C2.68 4 1.36 4 0 4 C0 2.68 0 1.36 0 0 Z " fill="#CBCBCB" transform="translate(621,231)"/>
<path d="M0 0 C1.50433594 0.01353516 1.50433594 0.01353516 3.0390625 0.02734375 C3.80992187 0.03894531 4.58078125 0.05054688 5.375 0.0625 C5.375 1.3825 5.375 2.7025 5.375 4.0625 C1.745 4.0625 -1.885 4.0625 -5.625 4.0625 C-5.625 5.3825 -5.625 6.7025 -5.625 8.0625 C-4.92632813 8.18367187 -4.22765625 8.30484375 -3.5078125 8.4296875 C-2.59773437 8.59726563 -1.68765625 8.76484375 -0.75 8.9375 C0.15492188 9.09992188 1.05984375 9.26234375 1.9921875 9.4296875 C4.375 10.0625 4.375 10.0625 6.375 12.0625 C6.8125 15 6.8125 15 6.375 18.0625 C2.61164155 21.0263171 -0.22628555 21.40531476 -4.9375 21.25 C-6.00613281 21.22292969 -7.07476563 21.19585937 -8.17578125 21.16796875 C-8.98402344 21.13316406 -9.79226563 21.09835938 -10.625 21.0625 C-10.625 19.7425 -10.625 18.4225 -10.625 17.0625 C-6.665 16.7325 -2.705 16.4025 1.375 16.0625 C1.375 15.4025 1.375 14.7425 1.375 14.0625 C-2.255 12.7425 -5.885 11.4225 -9.625 10.0625 C-10.3125 7.25 -10.3125 7.25 -10.625 4.0625 C-7.71232847 0.04023932 -4.7155201 -0.05483163 0 0 Z " fill="#D1D1D1" transform="translate(937.625,230.9375)"/>
<path d="M0 0 C1.50433594 0.01353516 1.50433594 0.01353516 3.0390625 0.02734375 C3.80992187 0.03894531 4.58078125 0.05054688 5.375 0.0625 C5.375 1.3825 5.375 2.7025 5.375 4.0625 C1.745 4.0625 -1.885 4.0625 -5.625 4.0625 C-5.625 5.3825 -5.625 6.7025 -5.625 8.0625 C-4.92632813 8.18367187 -4.22765625 8.30484375 -3.5078125 8.4296875 C-2.59773437 8.59726563 -1.68765625 8.76484375 -0.75 8.9375 C0.15492188 9.09992188 1.05984375 9.26234375 1.9921875 9.4296875 C4.375 10.0625 4.375 10.0625 6.375 12.0625 C6.8125 15 6.8125 15 6.375 18.0625 C2.61164155 21.0263171 -0.22628555 21.40531476 -4.9375 21.25 C-6.00613281 21.22292969 -7.07476563 21.19585937 -8.17578125 21.16796875 C-8.98402344 21.13316406 -9.79226563 21.09835938 -10.625 21.0625 C-10.625 19.7425 -10.625 18.4225 -10.625 17.0625 C-6.665 16.7325 -2.705 16.4025 1.375 16.0625 C1.375 15.4025 1.375 14.7425 1.375 14.0625 C-2.255 12.7425 -5.885 11.4225 -9.625 10.0625 C-10.3125 7.25 -10.3125 7.25 -10.625 4.0625 C-7.71232847 0.04023932 -4.7155201 -0.05483163 0 0 Z " fill="#D1D1D1" transform="translate(890.625,230.9375)"/>
<path d="M0 0 C2.31 0 4.62 0 7 0 C7.33 0.99 7.66 1.98 8 3 C8.350625 2.484375 8.70125 1.96875 9.0625 1.4375 C11 0 11 0 14.5625 0.125 C18 1 18 1 20 4 C20 5.32 20 6.64 20 8 C18.68 8 17.36 8 16 8 C15.67 7.01 15.34 6.02 15 5 C13.33388095 4.957279 11.66617115 4.95936168 10 5 C8.26043342 6.73956658 8.62809614 9.1936622 8.4375 11.5625 C8.35371094 12.57441406 8.26992188 13.58632812 8.18359375 14.62890625 C8.12300781 15.41136719 8.06242188 16.19382813 8 17 C9.65 17 11.3 17 13 17 C13 18.32 13 19.64 13 21 C8.38 21 3.76 21 -1 21 C-1 19.68 -1 18.36 -1 17 C0.32 17 1.64 17 3 17 C3 12.38 3 7.76 3 3 C2.01 3 1.02 3 0 3 C0 2.01 0 1.02 0 0 Z " fill="#CFCFCF" transform="translate(692,231)"/>
<path d="M0 0 C2.31 0 4.62 0 7 0 C7.33 0.99 7.66 1.98 8 3 C8.350625 2.484375 8.70125 1.96875 9.0625 1.4375 C11 0 11 0 14.5625 0.125 C18 1 18 1 20 4 C20 5.32 20 6.64 20 8 C18.68 8 17.36 8 16 8 C15.67 7.01 15.34 6.02 15 5 C13.33388095 4.957279 11.66617115 4.95936168 10 5 C8.26043342 6.73956658 8.62809614 9.1936622 8.4375 11.5625 C8.35371094 12.57441406 8.26992188 13.58632812 8.18359375 14.62890625 C8.12300781 15.41136719 8.06242188 16.19382813 8 17 C9.65 17 11.3 17 13 17 C13 18.32 13 19.64 13 21 C8.38 21 3.76 21 -1 21 C-1 19.68 -1 18.36 -1 17 C0.32 17 1.64 17 3 17 C3 12.38 3 7.76 3 3 C2.01 3 1.02 3 0 3 C0 2.01 0 1.02 0 0 Z " fill="#CFCFCF" transform="translate(575,231)"/>
<path d="M0 0 C1.32 0 2.64 0 4 0 C4 1.98 4 3.96 4 6 C7.3 6 10.6 6 14 6 C14 7.32 14 8.64 14 10 C10.7 10 7.4 10 4 10 C4.14037521 11.81293089 4.28744889 13.6253443 4.4375 15.4375 C4.55931641 16.95150391 4.55931641 16.95150391 4.68359375 18.49609375 C4.73211468 20.93640779 4.73211468 20.93640779 6 22 C7.34747084 22.23075082 8.70377565 22.41153063 10.0625 22.5625 C11.361875 22.706875 12.66125 22.85125 14 23 C14 24.32 14 25.64 14 27 C12.41820385 27.10867302 10.83422847 27.18589827 9.25 27.25 C8.36828125 27.29640625 7.4865625 27.3428125 6.578125 27.390625 C4 27 4 27 1.6875 25.4375 C-0.62844328 22.0922486 -0.39910904 19.77594413 -0.25 15.75 C-0.21390625 14.48671875 -0.1778125 13.2234375 -0.140625 11.921875 C-0.07101562 10.47554687 -0.07101562 10.47554687 0 9 C-1.65 9 -3.3 9 -5 9 C-5 8.01 -5 7.02 -5 6 C-3.35 6 -1.7 6 0 6 C0 4.02 0 2.04 0 0 Z " fill="#D4D4D4" transform="translate(954,225)"/>
<path d="M0 0 C1.32 0 2.64 0 4 0 C4 1.98 4 3.96 4 6 C7.3 6 10.6 6 14 6 C14 7.32 14 8.64 14 10 C10.7 10 7.4 10 4 10 C4.14037521 11.81293089 4.28744889 13.6253443 4.4375 15.4375 C4.55931641 16.95150391 4.55931641 16.95150391 4.68359375 18.49609375 C4.73211468 20.93640779 4.73211468 20.93640779 6 22 C7.34747084 22.23075082 8.70377565 22.41153063 10.0625 22.5625 C11.361875 22.706875 12.66125 22.85125 14 23 C14 24.32 14 25.64 14 27 C12.41820385 27.10867302 10.83422847 27.18589827 9.25 27.25 C8.36828125 27.29640625 7.4865625 27.3428125 6.578125 27.390625 C4 27 4 27 1.6875 25.4375 C-0.62844328 22.0922486 -0.39910904 19.77594413 -0.25 15.75 C-0.21390625 14.48671875 -0.1778125 13.2234375 -0.140625 11.921875 C-0.07101562 10.47554687 -0.07101562 10.47554687 0 9 C-1.65 9 -3.3 9 -5 9 C-5 8.01 -5 7.02 -5 6 C-3.35 6 -1.7 6 0 6 C0 4.02 0 2.04 0 0 Z " fill="#D4D4D4" transform="translate(368,225)"/>
<path d="M0 0 C3.375 -0.125 3.375 -0.125 7 0 C7.66 0.66 8.32 1.32 9 2 C9.66 1.34 10.32 0.68 11 0 C16.17431193 -0.55045872 16.17431193 -0.55045872 18.875 1.25 C20 3 20 3 20 7 C18.68 7 17.36 7 16 7 C15.67 6.34 15.34 5.68 15 5 C13.35 5 11.7 5 10 5 C8.78306124 7.43387753 8.68040104 9.41838846 8.4375 12.125 C8.35371094 13.03507813 8.26992187 13.94515625 8.18359375 14.8828125 C8.12300781 15.58148438 8.06242187 16.28015625 8 17 C9.65 17 11.3 17 13 17 C13 18.32 13 19.64 13 21 C8.38 21 3.76 21 -1 21 C-1 19.68 -1 18.36 -1 17 C0.65 17 2.3 17 4 17 C4 12.71 4 8.42 4 4 C2.68 4 1.36 4 0 4 C0 2.68 0 1.36 0 0 Z " fill="#D7D7D7" transform="translate(1137,231)"/>
<path d="M0 0 C0.99 0 1.98 0 3 0 C3.33 0.99 3.66 1.98 4 3 C4.66 2.01 5.32 1.02 6 0 C9.14727239 -0.41051379 11.25943073 -0.32250597 14.1796875 0.94921875 C17.13330574 4.27679295 16.4220732 7.90883362 16.25 12.1875 C16.23195313 13.03248047 16.21390625 13.87746094 16.1953125 14.74804688 C16.14820586 16.83251573 16.07646233 18.91640144 16 21 C14.68 21 13.36 21 12 21 C11.67 15.72 11.34 10.44 11 5 C9.35 5 7.7 5 6 5 C4.00383446 6.99616554 4.59016573 10.81701963 4.4375 13.5625 C4.39431641 14.27341797 4.35113281 14.98433594 4.30664062 15.71679688 C4.20028223 17.47761912 4.09961154 19.2387832 4 21 C2.68 21 1.36 21 0 21 C0 14.07 0 7.14 0 0 Z " fill="#D5D5D5" transform="translate(1443,231)"/>
<path d="M0 0 C0.99 0 1.98 0 3 0 C3.33 0.99 3.66 1.98 4 3 C4.66 2.01 5.32 1.02 6 0 C9.14727239 -0.41051379 11.25943073 -0.32250597 14.1796875 0.94921875 C17.13330574 4.27679295 16.4220732 7.90883362 16.25 12.1875 C16.23195313 13.03248047 16.21390625 13.87746094 16.1953125 14.74804688 C16.14820586 16.83251573 16.07646233 18.91640144 16 21 C14.68 21 13.36 21 12 21 C11.67 15.72 11.34 10.44 11 5 C9.35 5 7.7 5 6 5 C4.00383446 6.99616554 4.59016573 10.81701963 4.4375 13.5625 C4.39431641 14.27341797 4.35113281 14.98433594 4.30664062 15.71679688 C4.20028223 17.47761912 4.09961154 19.2387832 4 21 C2.68 21 1.36 21 0 21 C0 14.07 0 7.14 0 0 Z " fill="#D5D5D5" transform="translate(1279,231)"/>
<path d="M0 0 C0.99 0 1.98 0 3 0 C3.33 0.99 3.66 1.98 4 3 C4.66 2.01 5.32 1.02 6 0 C9.14727239 -0.41051379 11.25943073 -0.32250597 14.1796875 0.94921875 C17.13330574 4.27679295 16.4220732 7.90883362 16.25 12.1875 C16.23195313 13.03248047 16.21390625 13.87746094 16.1953125 14.74804688 C16.14820586 16.83251573 16.07646233 18.91640144 16 21 C14.68 21 13.36 21 12 21 C11.67 15.72 11.34 10.44 11 5 C9.35 5 7.7 5 6 5 C4.00383446 6.99616554 4.59016573 10.81701963 4.4375 13.5625 C4.39431641 14.27341797 4.35113281 14.98433594 4.30664062 15.71679688 C4.20028223 17.47761912 4.09961154 19.2387832 4 21 C2.68 21 1.36 21 0 21 C0 14.07 0 7.14 0 0 Z " fill="#D5D5D5" transform="translate(1068,231)"/>
<path d="M0 0 C3.96 0 7.92 0 12 0 C12 5.61 12 11.22 12 17 C13.98 17 15.96 17 18 17 C18 18.32 18 19.64 18 21 C11.73 21 5.46 21 -1 21 C-1 19.68 -1 18.36 -1 17 C1.64 17 4.28 17 7 17 C7 12.71 7 8.42 7 4 C4.69 4 2.38 4 0 4 C0 2.68 0 1.36 0 0 Z " fill="#C6C6C6" transform="translate(1232,231)"/>
<path d="M0 0 C3.63 0 7.26 0 11 0 C11 5.61 11 11.22 11 17 C12.98 17 14.96 17 17 17 C17 18.32 17 19.64 17 21 C10.73 21 4.46 21 -2 21 C-2 19.68 -2 18.36 -2 17 C0.64 17 3.28 17 6 17 C6 12.71 6 8.42 6 4 C4.02 4 2.04 4 0 4 C0 2.68 0 1.36 0 0 Z " fill="#C9C9C9" transform="translate(436,231)"/>
<path d="M0 0 C2.475 0.495 2.475 0.495 5 1 C7.72502965 0.62277985 7.72502965 0.62277985 10 0 C12.06723714 3.10085571 12.24497423 3.72931681 12.1953125 7.23046875 C12.18564453 8.43413086 12.18564453 8.43413086 12.17578125 9.66210938 C12.15902344 10.49548828 12.14226562 11.32886719 12.125 12.1875 C12.11597656 13.03248047 12.10695313 13.87746094 12.09765625 14.74804688 C12.07410703 16.83215243 12.03823647 18.91611217 12 21 C10.68 21 9.36 21 8 21 C8 15.06 8 9.12 8 3 C7.01 3 6.02 3 5 3 C4.67 8.94 4.34 14.88 4 21 C2.68 21 1.36 21 0 21 C0 14.07 0 7.14 0 0 Z " fill="#CBCBCB" transform="translate(1160,231)"/>
<path d="M0 0 C2.475 0.495 2.475 0.495 5 1 C7.72502965 0.62277985 7.72502965 0.62277985 10 0 C12.06723714 3.10085571 12.24497423 3.72931681 12.1953125 7.23046875 C12.18564453 8.43413086 12.18564453 8.43413086 12.17578125 9.66210938 C12.15902344 10.49548828 12.14226563 11.32886719 12.125 12.1875 C12.11597656 13.03248047 12.10695313 13.87746094 12.09765625 14.74804688 C12.07410703 16.83215243 12.03823647 18.91611217 12 21 C10.68 21 9.36 21 8 21 C8 15.06 8 9.12 8 3 C7.01 3 6.02 3 5 3 C4.67 8.94 4.34 14.88 4 21 C2.68 21 1.36 21 0 21 C0 14.07 0 7.14 0 0 Z " fill="#CBCBCB" transform="translate(996,231)"/>
<path d="M0 0 C2.25 -0.375 2.25 -0.375 5 0 C7.3125 3 7.3125 3 9 6 C11.87420123 3.28395285 11.87420123 3.28395285 14 0 C15.65 0 17.3 0 19 0 C18.0234375 1.69270833 17.046875 3.38541667 16.0703125 5.078125 C14.98600118 7.02513657 13.98235143 8.99989709 13 11 C13.433125 11.63808594 13.86625 12.27617187 14.3125 12.93359375 C14.869375 13.75988281 15.42625 14.58617187 16 15.4375 C16.556875 16.26121094 17.11375 17.08492187 17.6875 17.93359375 C19 20 19 20 19 21 C16.75 21.375 16.75 21.375 14 21 C11.6875 18 11.6875 18 10 15 C9.360625 15.804375 8.72125 16.60875 8.0625 17.4375 C6 20 6 20 5 21 C3.33382885 21.04063832 1.66611905 21.042721 0 21 C0.44472656 20.39671875 0.88945313 19.7934375 1.34765625 19.171875 C1.91355469 18.37265625 2.47945312 17.5734375 3.0625 16.75 C3.63097656 15.96109375 4.19945312 15.1721875 4.78515625 14.359375 C6.18935803 12.13911739 6.18935803 12.13911739 5.84375 9.96875 C4.88831102 7.73939238 3.75945491 5.78377679 2.4375 3.75 C1.98246094 3.04359375 1.52742188 2.3371875 1.05859375 1.609375 C0.70925781 1.07828125 0.35992188 0.5471875 0 0 Z " fill="#D7D7D7" transform="translate(1488,231)"/>
<path d="M0 0 C3.63 0 7.26 0 11 0 C11 5.61 11 11.22 11 17 C13.31 17 15.62 17 18 17 C18 18.32 18 19.64 18 21 C11.73 21 5.46 21 -1 21 C-1 19.68 -1 18.36 -1 17 C1.64 17 4.28 17 7 17 C7 12.71 7 8.42 7 4 C4.69 4 2.38 4 0 4 C0 2.68 0 1.36 0 0 Z " fill="#D3D3D3" transform="translate(787,231)"/>
<path d="M0 0 C1.32 0 2.64 0 4 0 C4 7.92 4 15.84 4 24 C8.95 24 13.9 24 19 24 C19 25.32 19 26.64 19 28 C12.73 28 6.46 28 0 28 C0 18.76 0 9.52 0 0 Z " fill="#D0D0D0" transform="translate(1395,224)"/>
<path d="M0 0 C3.63 0 7.26 0 11 0 C11 5.61 11 11.22 11 17 C12.98 17 14.96 17 17 17 C17 18.32 17 19.64 17 21 C11.06 21 5.12 21 -1 21 C-1 19.68 -1 18.36 -1 17 C1.64 17 4.28 17 7 17 C7 12.71 7 8.42 7 4 C4.69 4 2.38 4 0 4 C0 2.68 0 1.36 0 0 Z " fill="#D6D6D6" transform="translate(1420,231)"/>
<path d="M0 0 C3.63 0 7.26 0 11 0 C11 5.61 11 11.22 11 17 C12.98 17 14.96 17 17 17 C17 18.32 17 19.64 17 21 C11.06 21 5.12 21 -1 21 C-1 19.68 -1 18.36 -1 17 C1.64 17 4.28 17 7 17 C7 12.71 7 8.42 7 4 C4.69 4 2.38 4 0 4 C0 2.68 0 1.36 0 0 Z " fill="#D6D6D6" transform="translate(1045,231)"/>
<path d="M0 0 C1.32 0 2.64 0 4 0 C5.65 4.62 7.3 9.24 9 14 C10.93938819 11.09091772 11.96774957 8.59137621 13.125 5.3125 C13.47820313 4.31863281 13.83140625 3.32476562 14.1953125 2.30078125 C14.46085938 1.54152344 14.72640625 0.78226563 15 0 C16.32 0 17.64 0 19 0 C17.62820313 7.48252838 15.07836721 14.05604954 12 21 C10.35 21 8.7 21 7 21 C3.92163279 14.05604954 1.37179687 7.48252838 0 0 Z " fill="#D4D4D4" transform="translate(762,231)"/>
<path d="M0 0 C3.63 0 7.26 0 11 0 C11 5.61 11 11.22 11 17 C12.98 17 14.96 17 17 17 C17 18.32 17 19.64 17 21 C11.06 21 5.12 21 -1 21 C-1 19.68 -1 18.36 -1 17 C1.64 17 4.28 17 7 17 C7 12.71 7 8.42 7 4 C4.69 4 2.38 4 0 4 C0 2.68 0 1.36 0 0 Z " fill="#D6D6D6" transform="translate(717,231)"/>
<path d="M0 0 C3.63 0 7.26 0 11 0 C11 5.61 11 11.22 11 17 C12.98 17 14.96 17 17 17 C17 18.32 17 19.64 17 21 C11.06 21 5.12 21 -1 21 C-1 19.68 -1 18.36 -1 17 C1.64 17 4.28 17 7 17 C7 12.71 7 8.42 7 4 C4.69 4 2.38 4 0 4 C0 2.68 0 1.36 0 0 Z " fill="#D6D6D6" transform="translate(389,231)"/>
<path d="M0 0 C3.3 0 6.6 0 10 0 C10.06058594 1.64871094 10.12117188 3.29742187 10.18359375 4.99609375 C10.26797937 7.143239 10.35262835 9.29037391 10.4375 11.4375 C10.47681641 12.52611328 10.51613281 13.61472656 10.55664062 14.73632812 C10.61948242 16.28803711 10.61948242 16.28803711 10.68359375 17.87109375 C10.72025146 18.82943115 10.75690918 19.78776855 10.79467773 20.77514648 C10.75834424 22.97138925 10.75834424 22.97138925 12 24 C14.32817964 24.36760731 16.6618385 24.70241581 19 25 C19 25.99 19 26.98 19 28 C15.98131566 29.50934217 13.32702771 29.17510672 10 29 C7 27 7 27 6 24 C5.91893314 22.44578271 5.89243102 20.88832973 5.90234375 19.33203125 C5.90556641 18.43935547 5.90878906 17.54667969 5.91210938 16.62695312 C5.92048828 15.69818359 5.92886719 14.76941406 5.9375 13.8125 C5.94201172 12.87212891 5.94652344 11.93175781 5.95117188 10.96289062 C5.96295374 8.64186288 5.97940442 6.32096356 6 4 C4.02 4 2.04 4 0 4 C0 2.68 0 1.36 0 0 Z " fill="#D3D3D3" transform="translate(410,223)"/>
<path d="M0 0 C0.99 0 1.98 0 3 0 C3.08736736 3.72901814 3.14051482 7.45777165 3.1875 11.1875 C3.21263672 12.24259766 3.23777344 13.29769531 3.26367188 14.38476562 C3.27333984 15.40634766 3.28300781 16.42792969 3.29296875 17.48046875 C3.3086792 18.41785889 3.32438965 19.35524902 3.34057617 20.32104492 C2.93263426 23.52989552 1.86857944 25.38455977 0 28 C-3.05130378 30.14104088 -5.58212528 30.22152302 -9.25 30.125 C-10.14203125 30.10695313 -11.0340625 30.08890625 -11.953125 30.0703125 C-12.62859375 30.04710937 -13.3040625 30.02390625 -14 30 C-14 28.68 -14 27.36 -14 26 C-10.04 25.67 -6.08 25.34 -2 25 C-2 18.07 -2 11.14 -2 4 C-1.34 4 -0.68 4 0 4 C0 2.68 0 1.36 0 0 Z " fill="#D9D9D9" transform="translate(847,231)"/>
<path d="M0 0 C3 -0.3125 3 -0.3125 6 0 C8.60704898 2.60704898 8.23905333 4.47338241 8.265625 8.02734375 C8 10 8 10 6 13 C3 13.375 3 13.375 0 13 C-2.45811625 9.31282562 -2.31118164 7.35654296 -2 3 C-1.34 2.01 -0.68 1.02 0 0 Z " fill="#141414" transform="translate(838,235)"/>
<path d="M0 0 C2.83181098 -0.43566323 4.36063578 -0.39684676 6.8125 1.125 C8.55957504 3.88353953 8.39203417 5.79838764 8 9 C6.8125 11.375 6.8125 11.375 5 13 C2.4375 13.4375 2.4375 13.4375 0 13 C-2.45811625 9.31282562 -2.31118164 7.35654296 -2 3 C-1.34 2.01 -0.68 1.02 0 0 Z " fill="#1C1C1C" transform="translate(1120,235)"/>
<path d="M0 0 C2.5 0.25 2.5 0.25 4.5 2.25 C4.765625 4.34375 4.765625 4.34375 4.75 6.75 C4.75515625 7.5440625 4.7603125 8.338125 4.765625 9.15625 C4.5 11.25 4.5 11.25 2.5 13.25 C0 13.5625 0 13.5625 -2.5 13.25 C-5.21232939 9.18150591 -4.80699887 7.08523216 -4.5 2.25 C-2.5 0.25 -2.5 0.25 0 0 Z " fill="#151515" transform="translate(1333.5,234.75)"/>
<path d="M0 0 C2.5 0.25 2.5 0.25 4.5 2.25 C4.96376812 9.55434783 4.96376812 9.55434783 2.5 13.25 C0 13.5625 0 13.5625 -2.5 13.25 C-4.5 11.25 -4.5 11.25 -4.765625 9.15625 C-4.75789063 7.96515625 -4.75789063 7.96515625 -4.75 6.75 C-4.75515625 5.9559375 -4.7603125 5.161875 -4.765625 4.34375 C-4.35119662 1.07707925 -3.20036774 0.32003677 0 0 Z " fill="#141414" transform="translate(1263.5,234.75)"/>
<path d="M0 0 C2.5 0.25 2.5 0.25 4.5 2.25 C4.96376812 9.55434783 4.96376812 9.55434783 2.5 13.25 C0 13.5625 0 13.5625 -2.5 13.25 C-4.5 11.25 -4.5 11.25 -4.765625 9.15625 C-4.75789062 7.96515625 -4.75789062 7.96515625 -4.75 6.75 C-4.75515625 5.9559375 -4.7603125 5.161875 -4.765625 4.34375 C-4.35119662 1.07707925 -3.20036774 0.32003677 0 0 Z " fill="#141414" transform="translate(560.5,234.75)"/>
<path d="M0 0 C2.375 1.75 2.375 1.75 4 4 C4 5.32 4 6.64 4 8 C-0.95 8 -5.9 8 -11 8 C-10 3 -10 3 -8.3125 1.1875 C-5.26453845 -0.37766945 -3.38514427 -0.49366687 0 0 Z " fill="#151515" transform="translate(869,163)"/>
<path d="M0 0 C1.32 0 2.64 0 4 0 C4 5.61 4 11.22 4 17 C4.99 17 5.98 17 7 17 C7 18.32 7 19.64 7 21 C5.02 21 3.04 21 1 21 C0.21311555 18.22276075 -0.11949924 15.77389923 -0.09765625 12.890625 C-0.09443359 12.13652344 -0.09121094 11.38242188 -0.08789062 10.60546875 C-0.07951172 9.82816406 -0.07113281 9.05085937 -0.0625 8.25 C-0.05798828 7.45722656 -0.05347656 6.66445312 -0.04882812 5.84765625 C-0.03708565 3.89840492 -0.01915146 1.94919262 0 0 Z " fill="#DCDCDC" transform="translate(1478,231)"/>
<path d="M0 0 C1.32 0 2.64 0 4 0 C4 5.61 4 11.22 4 17 C4.99 17 5.98 17 7 17 C7 18.32 7 19.64 7 21 C5.02 21 3.04 21 1 21 C0.21311555 18.22276075 -0.11949924 15.77389923 -0.09765625 12.890625 C-0.09443359 12.13652344 -0.09121094 11.38242188 -0.08789062 10.60546875 C-0.07951172 9.82816406 -0.07113281 9.05085937 -0.0625 8.25 C-0.05798828 7.45722656 -0.05347656 6.66445312 -0.04882812 5.84765625 C-0.03708565 3.89840492 -0.01915146 1.94919262 0 0 Z " fill="#DCDCDC" transform="translate(353,231)"/>
<path d="M0 0 C2.97 0.495 2.97 0.495 6 1 C6 7.6 6 14.2 6 21 C4.68 21 3.36 21 2 21 C2 15.06 2 9.12 2 3 C1.01 3 0.02 3 -1 3 C-0.67 2.01 -0.34 1.02 0 0 Z " fill="#DADADA" transform="translate(1173,231)"/>
<path d="M0 0 C2.97 0.495 2.97 0.495 6 1 C6 7.6 6 14.2 6 21 C4.68 21 3.36 21 2 21 C2 15.06 2 9.12 2 3 C1.01 3 0.02 3 -1 3 C-0.67 2.01 -0.34 1.02 0 0 Z " fill="#DADADA" transform="translate(1009,231)"/>
<path d="M0 0 C1.32 0 2.64 0 4 0 C5.19600901 4.49167828 4.9185704 8.73269793 4.5625 13.3125 C4.51029297 14.05306641 4.45808594 14.79363281 4.40429688 15.55664062 C4.27549848 17.37152709 4.13856738 19.18583325 4 21 C2.68 21 1.36 21 0 21 C0 14.07 0 7.14 0 0 Z " fill="#D7D7D7" transform="translate(1160,231)"/>
<path d="M0 0 C1.32 0 2.64 0 4 0 C5.19600901 4.49167828 4.9185704 8.73269793 4.5625 13.3125 C4.51029297 14.05306641 4.45808594 14.79363281 4.40429688 15.55664062 C4.27549848 17.37152709 4.13856738 19.18583325 4 21 C2.68 21 1.36 21 0 21 C0 14.07 0 7.14 0 0 Z " fill="#D7D7D7" transform="translate(996,231)"/>
<path d="M0 0 C0.99 0 1.98 0 3 0 C3 1.32 3 2.64 3 4 C3.66 4 4.32 4 5 4 C4.67 9.61 4.34 15.22 4 21 C2.68 21 1.36 21 0 21 C0 14.07 0 7.14 0 0 Z " fill="#DFDFDF" transform="translate(1349,231)"/>
<path d="M0 0 C0.99 0 1.98 0 3 0 C3 1.32 3 2.64 3 4 C3.66 4 4.32 4 5 4 C4.67 9.61 4.34 15.22 4 21 C2.68 21 1.36 21 0 21 C0 14.07 0 7.14 0 0 Z " fill="#DFDFDF" transform="translate(810,231)"/>
<path d="M0 0 C3.125 0.25 3.125 0.25 5 1.5 C6.125 3.25 6.125 3.25 6.125 7.25 C4.805 7.25 3.485 7.25 2.125 7.25 C1.795 6.59 1.465 5.93 1.125 5.25 C-1.515 5.25 -4.155 5.25 -6.875 5.25 C-6.545 3.93 -6.215 2.61 -5.875 1.25 C-5.215 1.25 -4.555 1.25 -3.875 1.25 C-2.875 0.25 -2.875 0.25 0 0 Z " fill="#C7C7C7" transform="translate(1150.875,230.75)"/>
<path d="M0 0 C2 3 2 3 2 7 C0.68 7 -0.64 7 -2 7 C-2.33 6.01 -2.66 5.02 -3 4 C-5.31 4 -7.62 4 -10 4 C-9.625 2.0625 -9.625 2.0625 -9 0 C-5.85135005 -1.57432497 -3.35512575 -0.71895552 0 0 Z " fill="#C7C7C7" transform="translate(710,232)"/>
<path d="M0 0 C2 3 2 3 2 7 C0.68 7 -0.64 7 -2 7 C-2.33 6.01 -2.66 5.02 -3 4 C-5.31 4 -7.62 4 -10 4 C-9.625 2.0625 -9.625 2.0625 -9 0 C-5.85135005 -1.57432497 -3.35512575 -0.71895552 0 0 Z " fill="#C7C7C7" transform="translate(593,232)"/>
<path d="M0 0 C0.66 0.33 1.32 0.66 2 1 C2.6328125 3.72265625 2.6328125 3.72265625 3.125 7.0625 C3.29257812 8.16722656 3.46015625 9.27195313 3.6328125 10.41015625 C3.75398438 11.26480469 3.87515625 12.11945313 4 13 C1.69 13 -0.62 13 -3 13 C-2.68817931 11.58318366 -2.37551263 10.16655349 -2.0625 8.75 C-1.88847656 7.96109375 -1.71445312 7.1721875 -1.53515625 6.359375 C-1.052444 4.23121297 -0.53836822 2.11467158 0 0 Z " fill="#1B1B1B" transform="translate(302,228)"/>
<path d="M0 0 C0.1875 2.375 0.1875 2.375 0 5 C-3 7 -3 7 -5.6875 6.625 C-6.450625 6.41875 -7.21375 6.2125 -8 6 C-8.33 4.68 -8.66 3.36 -9 2 C-5.5647952 -0.29013653 -4.014669 -0.17842973 0 0 Z " fill="#282828" transform="translate(1196,242)"/>
<path d="M0 0 C3.0625 0.1875 3.0625 0.1875 5.0625 2.1875 C5.0625 3.1775 5.0625 4.1675 5.0625 5.1875 C1.7625 5.1875 -1.5375 5.1875 -4.9375 5.1875 C-3.69966216 0.23614865 -3.69966216 0.23614865 0 0 Z " fill="#151515" transform="translate(981.9375,234.8125)"/>
<path d="M0 0 C3.0625 0.1875 3.0625 0.1875 5.0625 2.1875 C5.0625 3.1775 5.0625 4.1675 5.0625 5.1875 C1.7625 5.1875 -1.5375 5.1875 -4.9375 5.1875 C-3.69966216 0.23614865 -3.69966216 0.23614865 0 0 Z " fill="#141414" transform="translate(747.9375,234.8125)"/>
<path d="M0 0 C3.0625 0.1875 3.0625 0.1875 5.0625 2.1875 C5.0625 3.1775 5.0625 4.1675 5.0625 5.1875 C1.7625 5.1875 -1.5375 5.1875 -4.9375 5.1875 C-3.69966216 0.23614865 -3.69966216 0.23614865 0 0 Z " fill="#151515" transform="translate(653.9375,234.8125)"/>
<path d="M0 0 C5.56818182 0.56818182 5.56818182 0.56818182 7 2 C7.04063832 3.66617115 7.042721 5.33388095 7 7 C5.68 7 4.36 7 3 7 C2.67 6.01 2.34 5.02 2 4 C-0.00016466 2.79117904 -0.00016466 2.79117904 -2 2 C-1.34 1.34 -0.68 0.68 0 0 Z " fill="#D7D7D7" transform="translate(634,231)"/>
<path d="M0 0 C1.65 0.33 3.3 0.66 5 1 C4.6875 2.9375 4.6875 2.9375 4 5 C3.01 5.33 2.02 5.66 1 6 C0.34 5.67 -0.32 5.34 -1 5 C-0.67 3.35 -0.34 1.7 0 0 Z " fill="#C2C2C2" transform="translate(794,223)"/>
<path d="M0 0 C2.0625 0.4375 2.0625 0.4375 4 1 C4 2.32 4 3.64 4 5 C2.68 5.33 1.36 5.66 0 6 C-0.38218767 4.34385343 -0.71395102 2.67542976 -1 1 C-0.67 0.67 -0.34 0.34 0 0 Z " fill="#C7C7C7" transform="translate(1427,223)"/>
<path d="M0 0 C2.0625 0.4375 2.0625 0.4375 4 1 C3.67 2.65 3.34 4.3 3 6 C1.68 5.67 0.36 5.34 -1 5 C-1 1 -1 1 0 0 Z " fill="#C7C7C7" transform="translate(1240,223)"/>
<path d="M0 0 C2.0625 0.4375 2.0625 0.4375 4 1 C4 2.32 4 3.64 4 5 C2.68 5.33 1.36 5.66 0 6 C-0.38218767 4.34385343 -0.71395102 2.67542976 -1 1 C-0.67 0.67 -0.34 0.34 0 0 Z " fill="#C7C7C7" transform="translate(1052,223)"/>
<path d="M0 0 C2.0625 0.4375 2.0625 0.4375 4 1 C4 2.32 4 3.64 4 5 C2.68 5.33 1.36 5.66 0 6 C-0.38218767 4.34385343 -0.71395102 2.67542976 -1 1 C-0.67 0.67 -0.34 0.34 0 0 Z " fill="#C7C7C7" transform="translate(724,223)"/>
<path d="M0 0 C2.0625 0.4375 2.0625 0.4375 4 1 C4 2.32 4 3.64 4 5 C2.68 5.33 1.36 5.66 0 6 C-0.38218767 4.34385343 -0.71395102 2.67542976 -1 1 C-0.67 0.67 -0.34 0.34 0 0 Z " fill="#C7C7C7" transform="translate(396,223)"/>
<path d="M0 0 C1.98 0.495 1.98 0.495 4 1 C3.67 2.65 3.34 4.3 3 6 C1.68 5.67 0.36 5.34 -1 5 C-0.67 3.35 -0.34 1.7 0 0 Z " fill="#CFCFCF" transform="translate(443,223)"/>
</svg>
