<?xml version="1.0" encoding="UTF-8"?>
<svg width="259pt" height="44pt" version="1.1" viewBox="0 0 259 44" xmlns="http://www.w3.org/2000/svg">
 <g class="graph" transform="scale(1) translate(4 40)">
  <title>example</title>
  <g class="node">
   <title>s</title>
   <ellipse cx="9" cy="-18" rx="9" ry="9" stroke="#000"/>
  </g>
  <g class="node">
   <title>a</title>
   <polygon points="54 0 108 0 108 -36 54 -36" fill="#fff" fill-opacity=".5" stroke="#000"/>
   <path d="m71.297-19.228q1.1118 0 1.7295 0.80566 0.62305 0.80566 0.62305 2.2612 0 1.4609-0.62842 2.2773-0.62842 0.81104-1.7456 0.81104-1.1279 0-1.751-0.81104h-0.08594l-0.23095 0.70361h-0.94531v-8.3574h1.2622v1.9873q0 0.22021-0.02148 0.65527t-0.03223 0.55322h0.05371q0.60156-0.88623 1.7725-0.88623zm-0.32764 1.0312q-0.7627 0-1.1011 0.45117-0.33301 0.4458-0.34375 1.4985v0.08594q0 1.085 0.34375 1.5737 0.34375 0.4834 1.1226 0.4834 0.67139 0 1.0151-0.53174 0.34912-0.53174 0.34912-1.5361 0-2.0249-1.3857-2.0249zm7.1597 5.124q-1.1279 0-1.751-0.81104h-0.0752q0.0752 0.75195 0.0752 0.91309v2.4331h-1.2622v-8.583h1.0205q0.04297 0.1665 0.17725 0.79492h0.06445q0.59082-0.90234 1.7725-0.90234 1.1118 0 1.7295 0.80566 0.62305 0.80566 0.62305 2.2612 0 1.4556-0.63379 2.272-0.62842 0.81641-1.7402 0.81641zm-0.30615-5.124q-0.75195 0-1.1011 0.44043-0.34375 0.44043-0.34375 1.4072v0.18799q0 1.085 0.34375 1.5737 0.34375 0.4834 1.1226 0.4834 0.65527 0 1.0098-0.53711 0.35449-0.53711 0.35449-1.5308 0-0.99902-0.35449-1.5093-0.34912-0.51562-1.0312-0.51562zm9.4155 2.0356q0 1.4556-0.74658 2.272-0.74658 0.81641-2.0786 0.81641-0.83252 0-1.4717-0.37598-0.63916-0.37598-0.98291-1.0796t-0.34375-1.6328q0-1.4448 0.74121-2.2559t2.0894-0.81104q1.2891 0 2.041 0.83252 0.75195 0.82715 0.75195 2.2344zm-4.3237 0q0 2.0571 1.52 2.0571 1.5039 0 1.5039-2.0571 0-2.0356-1.5146-2.0356-0.79492 0-1.1548 0.52637-0.35449 0.52637-0.35449 1.5093zm7.7773 3.0884q-1.1118 0-1.7349-0.80566-0.62305-0.80566-0.62305-2.2612 0-1.4609 0.62842-2.272 0.63379-0.81641 1.751-0.81641 1.1709 0 1.7832 0.86475h0.06445q-0.09131-0.63916-0.09131-1.0098v-2.1646h1.2676v8.3574h-0.98828l-0.22022-0.77881h-0.05908q-0.60693 0.88623-1.7778 0.88623zm0.33838-1.0205q0.77881 0 1.1333-0.43506 0.35449-0.44043 0.36524-1.4233v-0.17725q0-1.1226-0.36524-1.5952-0.36523-0.47266-1.144-0.47266-0.66602 0-1.0259 0.54248-0.35986 0.53711-0.35986 1.5361 0 0.98828 0.34912 1.5093 0.34912 0.51562 1.0474 0.51562z" aria-label="bpod"/>
  </g>
  <g class="edge">
   <title>s-&gt;a</title>
   <path d="m18.3-18h23.93" fill="none" stroke="#000"/>
   <polygon points="42.11 -21.5 52.11 -18 42.11 -14.5" stroke="#000"/>
  </g>
  <g class="node">
   <title>x</title>
   <ellipse cx="242.5" cy="-18" rx="8.5" ry="8.5" fill="#fff" fill-opacity=".5" stroke="#000"/>
   <ellipse cx="242.5" cy="-18" rx="4.5" ry="4.5" stroke="#000"/>
  </g>
  <g class="node">
   <title>b</title>
   <polygon points="144 0 198 0 198 -36 144 -36" fill="#fff" fill-opacity=".5" stroke="#000"/>
   <path d="m162.78-13.073q-1.3481 0-2.0518-0.78418-0.69824-0.78955-0.69824-2.2612 0-1.4985 0.73047-2.3042 0.73584-0.80566 2.1216-0.80566 0.93994 0 1.6919 0.34912l-0.38135 1.0151q-0.80029-0.31152-1.3213-0.31152-1.5415 0-1.5415 2.0464 0 0.99902 0.38134 1.5039 0.38672 0.49951 1.1279 0.49951 0.84327 0 1.5952-0.41894v1.1011q-0.33838 0.19873-0.7251 0.28467-0.38135 0.08594-0.9292 0.08594zm8.3198-3.0884q0 1.4556-0.74659 2.272-0.74658 0.81641-2.0786 0.81641-0.83252 0-1.4717-0.37598t-0.98291-1.0796-0.34375-1.6328q0-1.4448 0.74121-2.2559t2.0894-0.81104q1.2891 0 2.041 0.83252 0.75196 0.82715 0.75196 2.2344zm-4.3237 0q0 2.0571 1.52 2.0571 1.5039 0 1.5039-2.0571 0-2.0356-1.5146-2.0356-0.79492 0-1.1548 0.52637-0.35449 0.52637-0.35449 1.5093zm8.7871-3.0669q0.38134 0 0.62841 0.05371l-0.12353 1.1763q-0.26856-0.06445-0.5586-0.06445-0.75732 0-1.23 0.49414-0.46728 0.49414-0.46728 1.2837v3.1045h-1.2622v-5.9404h0.98828l0.16651 1.0474h0.0644q0.29541-0.53174 0.76807-0.84326 0.47802-0.31152 1.0259-0.31152zm4.1035 6.1553q-1.3857 0-2.1699-0.80566-0.77881-0.81104-0.77881-2.229 0-1.4556 0.7251-2.2881 0.7251-0.83252 1.9927-0.83252 1.1763 0 1.8584 0.71436 0.68213 0.71436 0.68213 1.9658v0.68213h-3.9585q0.0269 0.86475 0.46728 1.332 0.44043 0.46191 1.2407 0.46191 0.52637 0 0.97754-0.09668 0.45654-0.10205 0.97754-0.33301v1.0259q-0.46191 0.22021-0.93457 0.31152-0.47266 0.09131-1.0796 0.09131zm-0.23096-5.1992q-0.60156 0-0.96679 0.38135-0.35987 0.38135-0.42969 1.1118h2.6963q-0.0107-0.73584-0.35449-1.1118-0.34375-0.38135-0.94532-0.38135z" aria-label="core"/>
  </g>
  <g class="edge">
   <title>a-&gt;b</title>
   <path d="m108.4-18h23.8" fill="none" stroke="#000"/>
   <polygon points="132.1 -21.5 142.1 -18 132.1 -14.5" stroke="#000"/>
  </g>
  <g class="edge">
   <title>b-&gt;x</title>
   <path d="m198.27-18h24.02" fill="none" stroke="#000"/>
   <polygon points="222.14 -21.5 232.14 -18 222.14 -14.5" stroke="#000"/>
  </g>
 </g>
</svg>
