<svg width="285" height="285" xmlns="http://www.w3.org/2000/svg" xmlns:xlink="http://www.w3.org/1999/xlink" xml:space="preserve" overflow="hidden"><g transform="translate(-355 -150)"><path d="M586.562 209.375 536.094 209.375 536.094 194.531C536.094 182.953 526.891 173.75 515.312 173.75L479.688 173.75C468.109 173.75 458.906 182.953 458.906 194.531L458.906 209.375 408.438 209.375C401.906 209.375 396.562 214.719 396.562 221.25L396.562 233.125 598.438 233.125 598.438 221.25C598.438 214.719 593.094 209.375 586.562 209.375ZM476.719 194.531C476.719 192.75 477.906 191.562 479.688 191.562L515.312 191.562C517.094 191.562 518.281 192.75 518.281 194.531L518.281 209.375 476.719 209.375 476.719 194.531Z" stroke="#000000"/><path d="M414.375 399.375C414.375 405.906 419.719 411.25 426.25 411.25L568.75 411.25C575.281 411.25 580.625 405.906 580.625 399.375L580.625 245 414.375 245 414.375 399.375ZM536.094 262.812 553.906 262.812 553.906 393.438 536.094 393.438 536.094 262.812ZM488.594 262.812 506.406 262.812 506.406 393.438 488.594 393.438 488.594 262.812ZM441.094 262.812 458.906 262.812 458.906 393.438 441.094 393.438 441.094 262.812Z" stroke="#000000"/></g></svg>