<?xml version="1.0" encoding="UTF-8" standalone="no"?>
<!-- Created with Inkscape (http://www.inkscape.org/) -->

<svg
   width="1200"
   height="1200"
   viewBox="0 0 317.5 317.5"
   version="1.1"
   id="svg1"
   inkscape:version="1.3 (0e150ed6c4, 2023-07-21)"
   sodipodi:docname="no-image.svg"
   inkscape:export-filename="no-photo.jpg"
   inkscape:export-xdpi="100.505"
   inkscape:export-ydpi="100.505"
   xml:space="preserve"
   xmlns:inkscape="http://www.inkscape.org/namespaces/inkscape"
   xmlns:sodipodi="http://sodipodi.sourceforge.net/DTD/sodipodi-0.dtd"
   xmlns="http://www.w3.org/2000/svg"
   xmlns:svg="http://www.w3.org/2000/svg"><sodipodi:namedview
     id="namedview1"
     pagecolor="#505050"
     bordercolor="#eeeeee"
     borderopacity="1"
     inkscape:showpageshadow="0"
     inkscape:pageopacity="0"
     inkscape:pagecheckerboard="0"
     inkscape:deskcolor="#d1d1d1"
     inkscape:document-units="mm"
     inkscape:zoom="0.31714367"
     inkscape:cx="550.22382"
     inkscape:cy="665.31362"
     inkscape:window-width="1918"
     inkscape:window-height="1052"
     inkscape:window-x="0"
     inkscape:window-y="0"
     inkscape:window-maximized="1"
     inkscape:current-layer="layer1"
     showgrid="false"
     showguides="true"><inkscape:grid
       id="grid1"
       units="px"
       originx="0"
       originy="0"
       spacingx="0.26458333"
       spacingy="0.26458333"
       empcolor="#0099e5"
       empopacity="0.30196078"
       color="#0099e5"
       opacity="0.14901961"
       empspacing="5"
       dotted="false"
       gridanglex="30"
       gridanglez="30"
       visible="false" /><sodipodi:guide
       position="10.583333,317.5"
       orientation="-1,0"
       id="guide1"
       inkscape:locked="false"
       inkscape:label=""
       inkscape:color="rgb(0,134,229)" /><sodipodi:guide
       position="306.91667,317.5"
       orientation="-1,0"
       id="guide2"
       inkscape:locked="false"
       inkscape:label=""
       inkscape:color="rgb(0,134,229)" /><sodipodi:guide
       position="0,306.91667"
       orientation="0,1"
       id="guide3"
       inkscape:locked="false"
       inkscape:label=""
       inkscape:color="rgb(0,134,229)" /><sodipodi:guide
       position="0,10.583333"
       orientation="0,1"
       id="guide4"
       inkscape:locked="false"
       inkscape:label=""
       inkscape:color="rgb(0,134,229)" /></sodipodi:namedview><defs
     id="defs1" /><g
     inkscape:label="Layer 1"
     inkscape:groupmode="layer"
     id="layer1"><path
       id="rect5"
       style="opacity:0.738186;fill:#ffffff;stroke:#4d4d4d;stroke-width:0.517001;stroke-linecap:round;stroke-linejoin:round;stroke-opacity:0.94902"
       d="M 0 0 L 0 317.5 L 317.5 317.5 L 317.5 0 L 0 0 z M 10.583333 10.583333 L 306.91667 10.583333 L 306.91667 306.91667 L 10.583333 306.91667 L 10.583333 10.583333 z " /><rect
       style="opacity:0.738186;fill:#666666;stroke:#4d4d4d;stroke-width:0.517001;stroke-linecap:round;stroke-linejoin:round;stroke-opacity:0.94902"
       id="rect6"
       width="296.33334"
       height="296.33334"
       x="10.583333"
       y="10.58333" /><g
       id="g19"
       transform="matrix(0.18186502,0,0,0.18186502,108.90398,105.64056)"
       style="fill:#999999"><g
         id="g3"
         style="fill:#999999">&#10;	<g
   id="g2"
   style="fill:#999999">&#10;		<path
   d="M 526.76,131.045 C 512.483,116.771 495.262,109.632 475.085,109.632 H 411.132 L 396.574,70.806 C 392.956,61.481 386.345,53.438 376.728,46.678 367.115,39.921 357.266,36.54 347.177,36.54 H 200.996 c -10.088,0 -19.939,3.381 -29.552,10.138 -9.613,6.76 -16.225,14.803 -19.842,24.128 l -14.56,38.826 H 73.089 c -20.179,0 -37.401,7.139 -51.678,21.413 C 7.137,145.32 0,162.544 0,182.721 v 255.813 c 0,20.178 7.137,37.404 21.411,51.675 14.277,14.277 31.5,21.416 51.678,21.416 h 401.989 c 20.177,0 37.397,-7.139 51.675,-21.416 14.273,-14.271 21.412,-31.497 21.412,-51.675 V 182.721 C 548.169,162.544 541.03,145.32 526.76,131.045 Z M 364.446,400.993 c -25.029,25.03 -55.147,37.548 -90.362,37.548 -35.215,0 -65.331,-12.518 -90.362,-37.548 -25.031,-25.026 -37.544,-55.151 -37.544,-90.358 0,-35.218 12.517,-65.333 37.544,-90.364 25.028,-25.031 55.148,-37.544 90.362,-37.544 35.214,0 65.333,12.516 90.362,37.544 25.03,25.028 37.545,55.146 37.545,90.364 0,35.207 -12.514,65.329 -37.545,90.358 z"
   fill="#1abc9c"
   id="path1"
   style="fill:#999999" />&#10;		<path
   d="m 274.084,228.403 c -22.651,0 -42.018,8.042 -58.102,24.128 -16.084,16.084 -24.126,35.448 -24.126,58.104 0,22.647 8.042,42.014 24.126,58.098 16.084,16.081 35.45,24.123 58.102,24.123 22.648,0 42.017,-8.042 58.101,-24.123 16.084,-16.084 24.127,-35.45 24.127,-58.098 0,-22.655 -8.043,-42.019 -24.127,-58.104 -16.083,-16.085 -35.453,-24.128 -58.101,-24.128 z"
   fill="#1abc9c"
   id="path2"
   style="fill:#999999" />&#10;	</g>&#10;</g><g
         id="g4"
         style="fill:#999999">&#10;</g><g
         id="g5"
         style="fill:#999999">&#10;</g><g
         id="g6"
         style="fill:#999999">&#10;</g><g
         id="g7"
         style="fill:#999999">&#10;</g><g
         id="g8"
         style="fill:#999999">&#10;</g><g
         id="g9"
         style="fill:#999999">&#10;</g><g
         id="g10"
         style="fill:#999999">&#10;</g><g
         id="g11"
         style="fill:#999999">&#10;</g><g
         id="g12"
         style="fill:#999999">&#10;</g><g
         id="g13"
         style="fill:#999999">&#10;</g><g
         id="g14"
         style="fill:#999999">&#10;</g><g
         id="g15"
         style="fill:#999999">&#10;</g><g
         id="g16"
         style="fill:#999999">&#10;</g><g
         id="g17"
         style="fill:#999999">&#10;</g><g
         id="g18"
         style="fill:#999999">&#10;</g></g></g></svg>
