<?xml version="1.0" encoding="UTF-8" standalone="no"?>
<!-- Created with Inkscape (http://www.inkscape.org/) -->

<svg
   width="4.7004924mm"
   height="4.7004886mm"
   viewBox="0 0 4.7004924 4.7004886"
   version="1.1"
   id="svg1"
   xmlns="http://www.w3.org/2000/svg"
   xmlns:svg="http://www.w3.org/2000/svg">
  <defs
     id="defs1" />
  <g
     id="layer1"
     transform="translate(-65.165556,-85.125591)">
    <path
       id="rect7"
       style="fill:currentColor;stroke-width:0.0895323"
       d="m 65.971196,85.125586 c -0.446589,0 -0.805636,0.359047 -0.805636,0.805636 v 3.0887 c 0,0.446589 0.359047,0.806153 0.805636,0.806153 h 3.0887 c 0.446589,0 0.806153,-0.359564 0.806153,-0.806153 v -3.0887 c 0,-0.446589 -0.359564,-0.805636 -0.806153,-0.805636 z m -5.17e-4,0.117823 h 1.997811 v 5.17e-4 h 0.271818 l 0.7059,2.058272 c 0.09236,0.0011 0.186033,0.01048 0.28112,0.02894 0.101286,0.01963 0.204638,0.04909 0.310058,0.08837 v 0.305408 c -0.106453,-0.05685 -0.207222,-0.09922 -0.302307,-0.127124 -0.07131,-0.02093 -0.140494,-0.03404 -0.207739,-0.03927 h -0.134359 c -0.121344,0.0086 -0.217957,0.0406 -0.288871,0.09664 -0.08268,0.06615 -0.124023,0.160198 -0.124023,0.282153 0,0.102319 0.02739,0.179834 0.08217,0.232544 0.05581,0.05168 0.161233,0.09354 0.31626,0.125574 l 0.168982,0.03876 c 0.21084,0.04444 0.365869,0.122988 0.465088,0.235645 0.100253,0.111621 0.150378,0.261482 0.150378,0.449585 0,0.224275 -0.0677,0.394291 -0.203088,0.510046 -0.134359,0.115755 -0.332279,0.173633 -0.593762,0.173633 -0.09922,0 -0.204639,-0.0124 -0.31626,-0.03721 -0.106587,-0.02391 -0.264148,-0.0854 -0.381889,-0.133325 H 68.06513 l -0.190686,-0.593763 h -0.939478 l -0.189135,0.593763 h -0.297657 l 0.364836,-1.061951 c -0.115792,0.0851 -0.272937,0.128157 -0.472323,0.128157 h -0.353466 v 0.930176 h -0.282159 v -2.314601 h 0.63562 c 0.145486,0 0.268508,0.0225 0.369487,0.06821 v -1.775602 h -0.73949 z m 1.021643,0.26355 v 2.051037 h -0.0078 c 0.03129,0.07003 0.0509,0.1505 0.05943,0.241329 l 0.08268,-0.240812 h -0.0026 l 0.704867,-2.051554 z m 1.086756,0.04547 -0.382923,1.151867 h 0.767395 z m -0.468189,1.412317 -0.06253,0.19637 0.720369,2.108915 c 0.09289,0.05296 0.183923,0.09501 0.273368,0.124541 0.109554,0.03617 0.217559,0.05426 0.324012,0.05426 0.160197,0 0.28422,-0.03514 0.37207,-0.10542 0.08785,-0.07028 0.131775,-0.170532 0.131775,-0.300757 0,-0.113688 -0.03152,-0.202571 -0.09457,-0.26665 -0.06305,-0.06408 -0.1664,-0.112139 -0.310059,-0.144178 l -0.170532,-0.03721 c -0.21084,-0.04651 -0.363285,-0.11937 -0.457336,-0.218591 -0.09302,-0.09922 -0.139527,-0.237195 -0.139527,-0.413928 0,-0.204639 0.0646,-0.365869 0.193787,-0.483692 0.07576,-0.06854 0.168349,-0.117059 0.276986,-0.145727 l -0.118339,-0.367936 z m -1.623673,0.506945 v 0.869715 h 0.353466 c 0.131259,0 0.232544,-0.03772 0.303858,-0.113172 0.07235,-0.07545 0.10852,-0.182934 0.10852,-0.32246 0,-0.138494 -0.03617,-0.245464 -0.10852,-0.320911 -0.07131,-0.07545 -0.172599,-0.113172 -0.303858,-0.113172 z m 1.405082,0.08682 -0.372071,1.119828 h 0.767396 l -0.373621,-1.119828 z" />
  </g>
</svg>
