<?xml version="1.0" encoding="UTF-8" standalone="no"?>
<!-- Created with Inkscape (http://www.inkscape.org/) -->

<svg
   width="6.5332627mm"
   height="6.6221042mm"
   viewBox="0 0 6.5332628 6.6221042"
   version="1.1"
   id="svg1"
   xml:space="preserve"
   xmlns="http://www.w3.org/2000/svg"
   xmlns:svg="http://www.w3.org/2000/svg"><defs
     id="defs1" /><g
     id="layer1"
     transform="translate(-135.74407,-219.53998)"><g
       id="g3"
       transform="translate(3.9815656,-8.795436)"><g
         style="fill:none;stroke:currentColor;stroke-width:1;stroke-linecap:round;stroke-linejoin:round"
         id="g1"
         transform="matrix(0.26458333,0,0,0.26458333,131.7625,228.33542)"><path
           stroke="none"
           d="M 0,0 H 24 V 24 H 0 Z"
           fill="none"
           id="path1" /><path
           d="m 12,14 m -2,0 a 2,2 0 1 0 4,0 2,2 0 1 0 -4,0"
           id="path2" /><path
           d="M 12,10.5 V 12"
           id="path3" /><path
           d="m 12,16 v 1.5"
           id="path4" /><path
           d="M 15.031,12.25 13.732,13"
           id="path5"
           style="opacity:0.98" /><path
           d="m 10.268,15 -1.3,0.75"
           id="path6" /><path
           d="M 15,15.803 13.715,15.03"
           id="path7" /><path
           d="M 10.285,12.97 9,12.197"
           id="path8" /><path
           d="m 14,3 v 4 a 1,1 0 0 0 1,1 h 4"
           id="path9" /><path
           d="M 13.71003,21 H 7 C 5.8954305,21 5,20.104569 5,19 V 5 C 5,3.8954305 5.8954305,3 7,3 h 7 l 5,5 v 6.66401"
           id="path10" /></g></g><g
       style="fill:none;stroke:currentColor;stroke-width:1;stroke-linecap:round;stroke-linejoin:round"
       id="g6"
       transform="matrix(0.11930492,0,0,0.11930492,139.41401,223.29877)"><path
         stroke="none"
         d="M 0,0 H 24 V 24 H 0 Z"
         fill="none"
         id="path1-7" /><path
         d="m 6,4 h 10 l 4,4 v 10 a 2,2 0 0 1 -2,2 H 6 A 2,2 0 0 1 4,18 V 6 A 2,2 0 0 1 6,4"
         id="path2-1" /><path
         d="m 12,14 m -2,0 a 2,2 0 1 0 4,0 2,2 0 1 0 -4,0"
         id="path3-1" /><path
         d="M 14,4 V 8 H 8 V 4"
         id="path4-5" /></g></g></svg>
