<?xml version="1.0" encoding="UTF-8"?>
<svg id="arrow" xmlns="http://www.w3.org/2000/svg" version="1.1" viewBox="0 0 294.5 147.3">
  <defs>
    <style>
      .inner {
        fill: #fff;
      }
    </style>
  </defs>
  <path class="inner" d="M31.6,64.3c0-1.7,1.3-3,3-3l160.9.3c6.6,0,8.8-4.3,4.8-9.6l-17.9-24c-1.2-1.6-.7-3.6,1.1-4.5l15.6-7.9c1.4-.7,3.4-.4,4.5.6l59.2,54.4c1.8,1.6,1.8,4.3,0,5.9l-59.2,54.4c-1.1,1-3.1,1.3-4.5.6l-15.6-7.9c-1.8-.9-2.2-2.9-1.1-4.5l17.9-24c4-5.3,1.8-9.6-4.8-9.6l-160.9.3c-1.7,0-3-1.3-3-3v-18.6Z"/>
</svg>