<?xml version="1.0" encoding="UTF-8" standalone="no"?>
<!-- Created with Inkscape (http://www.inkscape.org/) -->

<svg
   width="6.4651155mm"
   height="6.8169775mm"
   viewBox="0 0 6.4651156 6.8169775"
   version="1.1"
   id="svg1"
   xml:space="preserve"
   inkscape:export-filename="Rastergrafik.svg"
   inkscape:export-xdpi="40"
   inkscape:export-ydpi="40"
   xmlns:inkscape="http://www.inkscape.org/namespaces/inkscape"
   xmlns:sodipodi="http://sodipodi.sourceforge.net/DTD/sodipodi-0.dtd"
   xmlns="http://www.w3.org/2000/svg"
   xmlns:svg="http://www.w3.org/2000/svg"><sodipodi:namedview
     id="namedview1"
     pagecolor="#ffffff"
     bordercolor="#000000"
     borderopacity="0.25"
     inkscape:showpageshadow="2"
     inkscape:pageopacity="0.0"
     inkscape:pagecheckerboard="0"
     inkscape:deskcolor="#d1d1d1"
     inkscape:document-units="mm"
     inkscape:zoom="8.3170034"
     inkscape:cx="-17.434164"
     inkscape:cy="3.7874218"
     inkscape:window-width="2560"
     inkscape:window-height="1369"
     inkscape:window-x="-8"
     inkscape:window-y="-8"
     inkscape:window-maximized="1"
     inkscape:current-layer="layer1"><inkscape:page
       x="-1.4036471e-22"
       y="0"
       width="6.465116"
       height="6.8169775"
       id="page2"
       margin="0"
       bleed="0" /></sodipodi:namedview><defs
     id="defs1" /><g
     inkscape:label="Ebene 1"
     inkscape:groupmode="layer"
     id="layer1"
     transform="translate(-135.74407,-219.53998)"><g
       id="g3"
       transform="translate(3.9815656,-8.795436)"><g
         style="fill:none;stroke:currentColor;stroke-width:1;stroke-linecap:round;stroke-linejoin:round"
         id="g1"
         transform="matrix(0.26458333,0,0,0.26458333,131.7625,228.33542)"><path
           stroke="none"
           d="M 0,0 H 24 V 24 H 0 Z"
           fill="none"
           id="path1" /><path
           d="m 12,14 m -2,0 a 2,2 0 1 0 4,0 2,2 0 1 0 -4,0"
           id="path2" /><path
           d="M 12,10.5 V 12"
           id="path3" /><path
           d="m 12,16 v 1.5"
           id="path4" /><path
           d="M 15.031,12.25 13.732,13"
           id="path5"
           style="opacity:0.98" /><path
           d="m 10.268,15 -1.3,0.75"
           id="path6" /><path
           d="M 15,15.803 13.715,15.03"
           id="path7" /><path
           d="M 10.285,12.97 9,12.197"
           id="path8" /><path
           d="m 14,3 v 4 a 1,1 0 0 0 1,1 h 4"
           id="path9" /><path
           d="M 13.71003,21 H 7 C 5.8954305,21 5,20.104569 5,19 V 5 C 5,3.8954305 5.8954305,3 7,3 h 7 l 5,5 v 8.279379"
           id="path10"
           sodipodi:nodetypes="cssssccc" /></g></g><g
       id="g4"
       transform="matrix(0.46862863,0,0,0.46862863,86.165537,119.5944)"><g
         style="fill:none;stroke:currentColor;stroke-width:1;stroke-linecap:round;stroke-linejoin:round"
         id="g2"
         transform="matrix(0.26458333,0,0,0.26458333,113.24074,221.46912)"><path
           stroke="none"
           d="M 0,0 H 24 V 24 H 0 Z"
           fill="none"
           id="path1-0" /><path
           d="M 5.7857391,19.022451 8.4189468,12.001518 A 0.95509892,0.95509892 0 0 1 9.3129194,11.381659 H 21.067322 a 0.95509892,0.95509892 0 0 1 0.941727,1.111735 l -0.951278,4.977021 a 1.9101978,1.9101978 0 0 1 -1.875815,1.552036 H 5.7857391 A 1.9101978,1.9101978 0 0 1 3.8755412,17.112253 V 6.6061646 A 1.9101978,1.9101978 0 0 1 5.7857391,4.6959668 h 3.8203956 l 2.8652963,2.8652967 h 6.685693 a 1.9101978,1.9101978 0 0 1 1.910198,1.9101979 v 1.9101976"
           id="path2-9"
           style="stroke-width:0.955099" /></g></g></g></svg>
