<?xml version="1.0" encoding="UTF-8" standalone="no"?>
<!-- Created with Inkscape (http://www.inkscape.org/) -->

<svg
   width="64.955208mm"
   height="64.822914mm"
   viewBox="0 0 64.955207 64.822914"
   version="1.1"
   id="svg1"
   sodipodi:docname="parallel.svg"
   inkscape:version="1.4 (86a8ad7, 2024-10-11)"
   xmlns:inkscape="http://www.inkscape.org/namespaces/inkscape"
   xmlns:sodipodi="http://sodipodi.sourceforge.net/DTD/sodipodi-0.dtd"
   xmlns:xlink="http://www.w3.org/1999/xlink"
   xmlns="http://www.w3.org/2000/svg"
   xmlns:svg="http://www.w3.org/2000/svg">
  <sodipodi:namedview
     id="namedview1"
     pagecolor="#ffffff"
     bordercolor="#000000"
     borderopacity="0.25"
     inkscape:showpageshadow="2"
     inkscape:pageopacity="0.0"
     inkscape:pagecheckerboard="0"
     inkscape:deskcolor="#d1d1d1"
     inkscape:document-units="mm"
     showgrid="true"
     inkscape:zoom="3.3681373"
     inkscape:cx="63.239702"
     inkscape:cy="73.185852"
     inkscape:window-width="2560"
     inkscape:window-height="1369"
     inkscape:window-x="-8"
     inkscape:window-y="-8"
     inkscape:window-maximized="1"
     inkscape:current-layer="svg1">
    <inkscape:grid
       id="grid1"
       units="mm"
       originx="0"
       originy="0"
       spacingx="0.99999998"
       spacingy="1"
       empcolor="#0099e5"
       empopacity="0.30196078"
       color="#0099e5"
       opacity="0.14901961"
       empspacing="5"
       enabled="true"
       visible="true" />
  </sodipodi:namedview>
  <defs
     id="defs1">
    <linearGradient
       id="linearGradient25">
      <stop
         style="stop-color:#000000;stop-opacity:1;"
         offset="0.23444976"
         id="stop25" />
      <stop
         style="stop-color:#7d3a3a;stop-opacity:0;"
         offset="0.81937796"
         id="stop26" />
    </linearGradient>
    <linearGradient
       id="linearGradient6-6">
      <stop
         style="stop-color:#000000;stop-opacity:1;"
         offset="0.29186603"
         id="stop6" />
      <stop
         style="stop-color:#000000;stop-opacity:0;"
         offset="1"
         id="stop7" />
    </linearGradient>
    <linearGradient
       xlink:href="#linearGradient6-6"
       id="linearGradient7"
       x1="84.969002"
       y1="49.79813"
       x2="100.48431"
       y2="50.339939"
       gradientUnits="userSpaceOnUse" />
    <clipPath
       id="clip0-6">
      <rect
         x="302"
         y="124"
         width="29"
         height="192"
         id="rect1-1" />
    </clipPath>
    <linearGradient
       xlink:href="#linearGradient25"
       id="linearGradient26"
       x1="313.98376"
       y1="230.98059"
       x2="319.01642"
       y2="223.51941"
       gradientUnits="userSpaceOnUse" />
    <linearGradient
       xlink:href="#linearGradient25"
       id="linearGradient27"
       gradientUnits="userSpaceOnUse"
       x1="313.98376"
       y1="230.98059"
       x2="319.01642"
       y2="223.51941" />
  </defs>
  <g
     id="layer1"
     transform="translate(-40.215839,-40.234474)">
    <path
       id="rect37"
       style="fill:#ffffff;stroke-width:0.1"
       d="M 40.215839,40.234474 H 105.17105 V 105.05739 H 40.215839 Z" />
    <path
       style="fill:#000000;fill-opacity:1;fill-rule:evenodd;stroke:none;stroke-width:1.65878;stroke-miterlimit:8;stroke-opacity:1"
       d="M 45.041016,99.208585 V 100.7828 H 100.0131 v -1.574215 z"
       id="path1" />
    <path
       style="fill:#000000;fill-opacity:1;fill-rule:evenodd;stroke:none;stroke-width:0.863266;stroke-miterlimit:8;stroke-opacity:1"
       d="m 45.112461,49.240669 v 1.574219 h 14.888541 v -1.574219 z"
       id="path1-5-1" />
    <path
       style="fill:#000000;fill-opacity:1;fill-rule:evenodd;stroke:none;stroke-width:0.881518;stroke-miterlimit:8;stroke-opacity:1"
       d="m 64.694562,49.170992 v 1.574219 h 15.524787 v -1.574219 z"
       id="path1-5-1-7" />
    <path
       style="fill:url(#linearGradient7);fill-rule:evenodd;stroke:none;stroke-width:0.881518;stroke-miterlimit:8;stroke-opacity:1"
       d="m 84.96425,49.281924 v 1.574219 h 15.52479 v -1.574219 z"
       id="path1-5-1-7-2" />
    <g
       clip-path="url(#clip0-6)"
       transform="matrix(0.26458333,0,0,0.26458333,-36.853547,14.818986)"
       id="g1">
      <path
         d="M 1.5,-8.87213e-7 1.5001,164 h -3 L -1.5,8.87213e-7 Z M 4.5001,162.5 1.04987e-4,177.5 -4.4999,162.5 Z"
         transform="matrix(1,0,0,-1,316.5,316)"
         id="path1-3" />
    </g>
    <g
       clip-path="url(#clip0-6)"
       transform="matrix(0.26458333,0,0,0.26458333,-17.002647,14.818986)"
       id="g21">
      <path
         d="M 1.5,-8.87213e-7 1.5001,164 h -3 L -1.5,8.87213e-7 Z M 4.5001,162.5 1.04987e-4,177.5 -4.4999,162.5 Z"
         transform="matrix(1,0,0,-1,316.5,316)"
         id="path21" />
    </g>
    <g
       clip-path="url(#clip0-6)"
       transform="matrix(0.26458333,0,0,0.26458333,3.2300008,14.818986)"
       id="g22">
      <path
         d="M 1.5,-8.87213e-7 1.5001,164 h -3 L -1.5,8.87213e-7 Z M 4.5001,162.5 1.04987e-4,177.5 -4.4999,162.5 Z"
         transform="matrix(1,0,0,-1,316.5,316)"
         id="path22" />
    </g>
    <g
       clip-path="url(#clip0-6)"
       transform="matrix(0.26458333,0,0,-0.26458333,-33.545064,135.07211)"
       id="g23">
      <path
         d="M 1.5,-8.87213e-7 1.5001,164 h -3 L -1.5,8.87213e-7 Z M 4.5001,162.5 1.04987e-4,177.5 -4.4999,162.5 Z"
         transform="matrix(1,0,0,-1,316.5,316)"
         id="path23" />
    </g>
    <g
       clip-path="url(#clip0-6)"
       transform="matrix(0.26458333,0,0,-0.26458333,-13.694164,135.07211)"
       id="g24">
      <path
         d="M 1.5,-8.87213e-7 1.5001,164 h -3 L -1.5,8.87213e-7 Z M 4.5001,162.5 1.04987e-4,177.5 -4.4999,162.5 Z"
         transform="matrix(1,0,0,-1,316.5,316)"
         id="path24" />
    </g>
    <g
       clip-path="url(#clip0-6)"
       transform="matrix(0.26458333,0,0,-0.26458333,6.5384839,135.07211)"
       id="g25"
       style="fill:url(#linearGradient26)">
      <path
         d="M 1.5,-8.87213e-7 1.5001,164 h -3 L -1.5,8.87213e-7 Z M 4.5001,162.5 1.04987e-4,177.5 -4.4999,162.5 Z"
         transform="matrix(1,0,0,-1,316.5,316)"
         id="path25"
         style="fill:url(#linearGradient27)" />
    </g>
    <g
       id="text27"
       style="font-stretch:semi-condensed;font-size:5.82083px;line-height:0;font-family:'DejaVu Sans', Arial;-inkscape-font-specification:'DejaVu Sans, Arial Semi-Condensed';baseline-shift:baseline;stroke-width:0.1"
       aria-label="DAS1">
      <path
         style="baseline-shift:baseline"
         d="m 46.751,42.866612 v 3.299797 h 0.622442 q 0.790132,0 1.156776,-0.397909 0.369486,-0.397908 0.369486,-1.256253 0,-0.852661 -0.369486,-1.247727 -0.366644,-0.397908 -1.156776,-0.397908 z m -0.517281,-0.471806 h 1.060141 q 1.111301,0 1.628582,0.514439 0.520123,0.511596 0.520123,1.603002 0,1.09709 -0.522965,1.611529 -0.520123,0.514438 -1.62574,0.514438 h -1.060141 z m 5.206914,0.565599 -0.702024,2.111756 h 1.40689 z m -0.292747,-0.565599 h 0.588336 l 1.455207,4.243408 h -0.537176 l -0.349591,-1.088563 h -1.722374 l -0.346749,1.088563 h -0.545703 z m 4.885746,0.139268 v 0.559914 q -0.292747,-0.156321 -0.55423,-0.23306 -0.261482,-0.07674 -0.50307,-0.07674 -0.423488,0 -0.653706,0.181901 -0.227376,0.181901 -0.227376,0.517281 0,0.281378 0.150636,0.42633 0.153479,0.14211 0.57981,0.230218 l 0.3098,0.07106 q 0.579809,0.122214 0.85266,0.432014 0.275694,0.306958 0.275694,0.824239 0,0.616758 -0.372329,0.935084 -0.369486,0.318327 -1.088563,0.318327 -0.272851,0 -0.579809,-0.06821 -0.304116,-0.06821 -0.630969,-0.201796 v -0.591178 q 0.315484,0.196112 0.616758,0.295589 0.301273,0.09948 0.59402,0.09948 0.440541,0 0.682128,-0.19327 0.241588,-0.19327 0.241588,-0.551387 0,-0.312642 -0.173375,-0.488859 -0.173374,-0.176216 -0.56844,-0.264325 l -0.312642,-0.06821 q -0.57981,-0.127899 -0.83845,-0.40075 -0.255798,-0.272851 -0.255798,-0.758868 0,-0.562756 0.355275,-0.886767 0.358118,-0.324011 0.983402,-0.324011 0.270009,0 0.548545,0.054 0.278536,0.054 0.568441,0.162005 z"
         id="path32" />
      <path
         style="baseline-shift:sub"
         d="m 57.207461,47.319206 h 0.844134 v -3.237268 l -0.920873,0.204638 v -0.522965 l 0.915189,-0.204639 h 0.51728 v 3.760234 h 0.844134 v 0.483174 h -2.199864 z"
         id="path33" />
    </g>
    <g
       id="text30"
       style="font-stretch:semi-condensed;font-size:5.82083px;line-height:0;font-family:'DejaVu Sans', Arial;-inkscape-font-specification:'DejaVu Sans, Arial Semi-Condensed';baseline-shift:baseline;stroke-width:0.1"
       aria-label="DAS2">
      <path
         style="baseline-shift:baseline"
         d="m 66.727039,42.866612 v 3.299797 h 0.622443 q 0.790132,0 1.156776,-0.397909 0.369486,-0.397908 0.369486,-1.256253 0,-0.852661 -0.369486,-1.247727 -0.366644,-0.397908 -1.156776,-0.397908 z m -0.51728,-0.471806 H 67.2699 q 1.111301,0 1.628582,0.514439 0.520123,0.511596 0.520123,1.603002 0,1.09709 -0.522965,1.611529 -0.520123,0.514438 -1.62574,0.514438 h -1.060141 z m 5.206914,0.565599 -0.702024,2.111756 h 1.40689 z m -0.292747,-0.565599 h 0.588336 l 1.455207,4.243408 h -0.537176 l -0.349591,-1.088563 h -1.722374 l -0.346749,1.088563 h -0.545703 z m 4.885745,0.139268 v 0.559914 q -0.292746,-0.156321 -0.554229,-0.23306 -0.261483,-0.07674 -0.50307,-0.07674 -0.423488,0 -0.653706,0.181901 -0.227376,0.181901 -0.227376,0.517281 0,0.281378 0.150636,0.42633 0.153479,0.14211 0.57981,0.230218 l 0.3098,0.07106 q 0.579809,0.122214 0.85266,0.432014 0.275694,0.306958 0.275694,0.824239 0,0.616758 -0.372329,0.935084 -0.369486,0.318327 -1.088563,0.318327 -0.272852,0 -0.579809,-0.06821 -0.304116,-0.06821 -0.630969,-0.201796 v -0.591178 q 0.315484,0.196112 0.616758,0.295589 0.301273,0.09948 0.59402,0.09948 0.440541,0 0.682128,-0.19327 0.241588,-0.19327 0.241588,-0.551387 0,-0.312642 -0.173375,-0.488859 -0.173374,-0.176216 -0.56844,-0.264325 l -0.312642,-0.06821 q -0.57981,-0.127899 -0.83845,-0.40075 -0.255798,-0.272851 -0.255798,-0.758868 0,-0.562756 0.355275,-0.886767 0.358118,-0.324011 0.983402,-0.324011 0.270009,0 0.548545,0.054 0.278536,0.054 0.56844,0.162005 z"
         id="path34" />
      <path
         style="baseline-shift:sub"
         d="m 77.538776,47.319206 h 1.801956 v 0.483174 h -2.424398 v -0.483174 q 0.292747,-0.338222 0.801501,-0.906663 0.508754,-0.571282 0.639495,-0.73613 0.247272,-0.3098 0.343907,-0.522965 0.09948,-0.216008 0.09948,-0.423488 0,-0.338222 -0.213165,-0.551388 -0.213165,-0.213165 -0.557072,-0.213165 -0.241587,0 -0.511596,0.09379 -0.270009,0.09379 -0.576967,0.28422 v -0.579809 q 0.312642,-0.139268 0.582651,-0.210323 0.272852,-0.07106 0.497386,-0.07106 0.59402,0 0.946453,0.329695 0.352433,0.329696 0.352433,0.881083 0,0.261483 -0.08811,0.497385 -0.08811,0.233061 -0.321169,0.551388 -0.06537,0.08242 -0.409277,0.47749 -0.341065,0.392223 -0.963507,1.099932 z"
         id="path35" />
    </g>
    <g
       id="text32"
       style="font-stretch:semi-condensed;font-size:5.82083px;line-height:0;font-family:'DejaVu Sans', Arial;-inkscape-font-specification:'DejaVu Sans, Arial Semi-Condensed';baseline-shift:baseline;stroke-width:0.1"
       aria-label="DAS3">
      <path
         style="baseline-shift:baseline"
         d="m 85.909329,42.866612 v 3.299797 h 0.622442 q 0.790132,0 1.156776,-0.397909 0.369486,-0.397908 0.369486,-1.256253 0,-0.852661 -0.369486,-1.247727 -0.366644,-0.397908 -1.156776,-0.397908 z m -0.517281,-0.471806 h 1.060141 q 1.111301,0 1.628582,0.514439 0.520123,0.511596 0.520123,1.603002 0,1.09709 -0.522965,1.611529 -0.520123,0.514438 -1.62574,0.514438 h -1.060141 z m 5.206914,0.565599 -0.702024,2.111756 h 1.40689 z m -0.292747,-0.565599 h 0.588336 l 1.455207,4.243408 h -0.537176 l -0.349591,-1.088563 h -1.722374 l -0.346749,1.088563 h -0.545703 z m 4.885746,0.139268 v 0.559914 q -0.292747,-0.156321 -0.55423,-0.23306 -0.261482,-0.07674 -0.50307,-0.07674 -0.423488,0 -0.653706,0.181901 -0.227376,0.181901 -0.227376,0.517281 0,0.281378 0.150636,0.42633 0.153479,0.14211 0.57981,0.230218 l 0.3098,0.07106 q 0.579809,0.122214 0.85266,0.432014 0.275694,0.306958 0.275694,0.824239 0,0.616758 -0.372329,0.935084 -0.369486,0.318327 -1.088563,0.318327 -0.272851,0 -0.579809,-0.06821 -0.304116,-0.06821 -0.630969,-0.201796 v -0.591178 q 0.315484,0.196112 0.616758,0.295589 0.301273,0.09948 0.59402,0.09948 0.440541,0 0.682129,-0.19327 0.241587,-0.19327 0.241587,-0.551387 0,-0.312642 -0.173375,-0.488859 -0.173374,-0.176216 -0.56844,-0.264325 l -0.312642,-0.06821 q -0.57981,-0.127899 -0.83845,-0.40075 -0.255798,-0.272851 -0.255798,-0.758868 0,-0.562756 0.355275,-0.886767 0.358118,-0.324011 0.983402,-0.324011 0.270009,0 0.548545,0.054 0.278536,0.054 0.568441,0.162005 z"
         id="path36" />
      <path
         style="baseline-shift:sub"
         d="m 97.840893,45.514407 q 0.369486,0.08811 0.576967,0.366644 0.210323,0.278536 0.210323,0.687813 0,0.628127 -0.389382,0.972033 -0.386539,0.343907 -1.102774,0.343907 -0.241587,0 -0.497386,-0.054 -0.252956,-0.05116 -0.525807,-0.156321 v -0.554229 q 0.216007,0.139267 0.471806,0.210323 0.255798,0.07105 0.534334,0.07105 0.486016,0 0.738972,-0.213166 0.255798,-0.213165 0.255798,-0.6196 0,-0.37517 -0.235902,-0.585493 -0.235903,-0.213165 -0.659391,-0.213165 H 96.775067 V 45.2984 h 0.463279 q 0.380855,0 0.582652,-0.16769 0.204638,-0.170532 0.204638,-0.488859 0,-0.326853 -0.210323,-0.500227 -0.207481,-0.176217 -0.596862,-0.176217 -0.213165,0 -0.454753,0.05116 -0.241587,0.05116 -0.534334,0.159163 v -0.511596 q 0.292747,-0.09095 0.548545,-0.136426 0.258641,-0.04547 0.486017,-0.04547 0.588336,0 0.932242,0.298431 0.343907,0.295589 0.343907,0.801501 0,0.352433 -0.181901,0.596863 -0.181901,0.241587 -0.517281,0.335379 z"
         id="path37" />
    </g>
  </g>
  <g
     id="text38"
     style="font-stretch:semi-condensed;font-size:5.82083px;line-height:0;font-family:'DejaVu Sans', Arial;-inkscape-font-specification:'DejaVu Sans, Arial Semi-Condensed';stroke-width:0.1"
     aria-label="t1">
    <path
       d="m 12.652755,30.799987 v 0.90382 h 0.969191 v 0.406435 h -0.969191 v 1.728059 q 0,0.389382 0.09379,0.500228 0.09663,0.110845 0.389382,0.110845 h 0.486016 v 0.4377 H 13.13593 q -0.542861,0 -0.750342,-0.224534 -0.20748,-0.227377 -0.20748,-0.824239 v -1.728059 h -0.343907 v -0.406435 h 0.343907 v -0.90382 z"
       id="path4" />
    <path
       style="baseline-shift:sub"
       d="m 14.395025,35.568065 h 0.844134 v -3.237268 l -0.920873,0.204639 V 32.01247 l 0.915189,-0.204638 h 0.517281 v 3.760233 h 0.844134 v 0.483174 h -2.199865 z"
       id="path5" />
  </g>
  <g
     id="text2"
     style="font-stretch:semi-condensed;font-size:5.82083px;line-height:0;font-family:'DejaVu Sans', Arial;-inkscape-font-specification:'DejaVu Sans, Arial Semi-Condensed';stroke-width:0.1"
     aria-label="t2">
    <path
       d="m 32.448564,30.799987 v 0.90382 h 0.969191 v 0.406435 h -0.969191 v 1.728059 q 0,0.389382 0.09379,0.500228 0.09663,0.110845 0.389381,0.110845 h 0.486017 v 0.4377 h -0.486017 q -0.54286,0 -0.750341,-0.224534 -0.207481,-0.227377 -0.207481,-0.824239 V 32.110242 H 31.63001 v -0.406435 h 0.343906 v -0.90382 z"
       id="path6" />
    <path
       style="baseline-shift:sub"
       d="m 34.546109,35.568065 h 1.801956 v 0.483174 h -2.424398 v -0.483174 q 0.292747,-0.338222 0.801501,-0.906662 0.508754,-0.571283 0.639495,-0.736131 0.247272,-0.3098 0.343907,-0.522965 0.09948,-0.216007 0.09948,-0.423488 0,-0.338222 -0.213165,-0.551387 -0.213165,-0.213165 -0.557072,-0.213165 -0.241587,0 -0.511596,0.09379 -0.270009,0.09379 -0.576967,0.284221 v -0.57981 q 0.312642,-0.139268 0.582651,-0.210323 0.272852,-0.07106 0.497386,-0.07106 0.59402,0 0.946453,0.329696 0.352433,0.329695 0.352433,0.881082 0,0.261483 -0.08811,0.497386 -0.08811,0.23306 -0.321169,0.551387 -0.06537,0.08242 -0.409277,0.47749 -0.341065,0.392224 -0.963507,1.099932 z"
       id="path7" />
  </g>
  <g
     id="text4"
     style="font-stretch:semi-condensed;font-size:5.82083px;line-height:0;font-family:'DejaVu Sans', Arial;-inkscape-font-specification:'DejaVu Sans, Arial Semi-Condensed';stroke-width:0.1"
     aria-label="t3">
    <path
       d="m 53.108476,30.799987 v 0.90382 h 0.969191 v 0.406435 h -0.969191 v 1.728059 q 0,0.389382 0.09379,0.500228 0.09663,0.110845 0.389382,0.110845 h 0.486016 v 0.4377 h -0.486016 q -0.542861,0 -0.750342,-0.224534 -0.207481,-0.227377 -0.207481,-0.824239 v -1.728059 h -0.343906 v -0.406435 h 0.343906 v -0.90382 z"
       id="path8" />
    <path
       style="baseline-shift:sub"
       d="m 56.325849,33.763267 q 0.369486,0.08811 0.576967,0.366644 0.210323,0.278536 0.210323,0.687813 0,0.628126 -0.389382,0.972033 -0.386539,0.343906 -1.102774,0.343906 -0.241587,0 -0.497386,-0.054 -0.252956,-0.05116 -0.525807,-0.156322 v -0.554229 q 0.216007,0.139268 0.471806,0.210323 0.255798,0.07106 0.534334,0.07106 0.486016,0 0.738972,-0.213165 0.255798,-0.213165 0.255798,-0.6196 0,-0.375171 -0.235902,-0.585494 -0.235903,-0.213165 -0.659391,-0.213165 h -0.443384 v -0.471806 h 0.463279 q 0.380855,0 0.582652,-0.167689 0.204638,-0.170533 0.204638,-0.488859 0,-0.326853 -0.210323,-0.500228 -0.207481,-0.176216 -0.596862,-0.176216 -0.213165,0 -0.454753,0.05116 -0.241587,0.05116 -0.534334,0.159164 v -0.511597 q 0.292747,-0.09095 0.548545,-0.136425 0.258641,-0.04548 0.486017,-0.04548 0.588336,0 0.932242,0.298432 0.343907,0.295589 0.343907,0.801501 0,0.352433 -0.181901,0.596862 -0.181901,0.241587 -0.517281,0.33538 z"
       id="path9" />
  </g>
</svg>
