<?xml version="1.0" encoding="UTF-8" standalone="no"?>
<!-- Created with Inkscape (http://www.inkscape.org/) -->

<svg
   width="6.3499999mm"
   height="6.3499999mm"
   viewBox="0 0 6.35 6.3499999"
   version="1.1"
   id="svg1"
   xml:space="preserve"
   xmlns="http://www.w3.org/2000/svg"
   xmlns:svg="http://www.w3.org/2000/svg"><defs
     id="defs1" /><g
     id="layer1"
     transform="translate(-135.74407,-219.53998)"><path
       style="font-stretch:semi-condensed;font-size:2.37277px;line-height:0;font-family:'DejaVu Sans';-inkscape-font-specification:'DejaVu Sans Semi-Condensed';opacity:0.71;fill:currentColor;fill-opacity:1;stroke:currentColor;stroke-width:0.074733;stroke-opacity:1"
       d="m 140.36093,224.70542 q -0.23288,0 -0.32325,0.0591 -0.0892,0.0591 -0.0892,0.2016 0,0.11354 0.0672,0.18074 0.0672,0.066 0.18306,0.066 0.15988,0 0.25604,-0.12512 0.0962,-0.12629 0.0962,-0.33483 v -0.0475 z m 0.38233,-0.0881 v 0.74034 h -0.19233 v -0.19696 q -0.0649,0.11817 -0.16336,0.17494 -0.0973,0.0556 -0.23982,0.0556 -0.17958,0 -0.28501,-0.11123 -0.10543,-0.11238 -0.10543,-0.30007 0,-0.21897 0.13092,-0.3302 0.13207,-0.11122 0.39391,-0.11122 h 0.26879 v -0.0208 q 0,-0.14714 -0.0869,-0.22708 -0.0869,-0.0811 -0.24446,-0.0811 -0.0996,0 -0.19464,0.0267 -0.095,0.0266 -0.18306,0.0799 v -0.19695 q 0.10543,-0.0452 0.20391,-0.0672 0.0996,-0.0232 0.19349,-0.0232 0.25372,0 0.37885,0.14598 0.12513,0.14598 0.12513,0.44257 z m 1.13888,-0.51904 v 0.20159 q -0.0811,-0.0463 -0.16915,-0.0695 -0.0869,-0.0232 -0.18074,-0.0232 -0.1425,0 -0.21434,0.0487 -0.0718,0.0487 -0.0718,0.14598 0,0.0741 0.051,0.11702 0.0521,0.0417 0.20623,0.0799 l 0.0649,0.0162 q 0.20506,0.0487 0.2908,0.13787 0.0857,0.0881 0.0857,0.24678 0,0.18073 -0.1286,0.28616 -0.1286,0.10544 -0.35336,0.10544 -0.0939,0 -0.1958,-0.0209 -0.10196,-0.0197 -0.21434,-0.0603 v -0.22013 q 0.10659,0.0614 0.2097,0.0927 0.10312,0.0301 0.20391,0.0301 0.13556,0 0.20855,-0.051 0.073,-0.0521 0.073,-0.14598 0,-0.0869 -0.0533,-0.13324 -0.0521,-0.0463 -0.23056,-0.0892 l -0.066,-0.0174 q -0.17843,-0.0417 -0.25837,-0.12744 -0.0788,-0.0869 -0.0788,-0.23751 0,-0.18306 0.11702,-0.2827 0.11701,-0.0996 0.33135,-0.0996 0.10659,0 0.20043,0.0174 0.0939,0.0174 0.17263,0.0521 z"
       id="text5"
       aria-label="as" /><g
       id="g3"
       transform="translate(3.9815656,-8.795436)"><g
         style="fill:none;stroke:currentColor;stroke-width:1;stroke-linecap:round;stroke-linejoin:round"
         id="g1"
         transform="matrix(0.26458333,0,0,0.26458333,131.7625,228.33542)"><path
           stroke="none"
           d="M 0,0 H 24 V 24 H 0 Z"
           fill="none"
           id="path1" /><path
           d="m 12,14 m -2,0 a 2,2 0 1 0 4,0 2,2 0 1 0 -4,0"
           id="path2" /><path
           d="M 12,10.5 V 12"
           id="path3" /><path
           d="m 12,16 v 1.5"
           id="path4" /><path
           d="M 15.031,12.25 13.732,13"
           id="path5"
           style="opacity:0.98" /><path
           d="m 10.268,15 -1.3,0.75"
           id="path6" /><path
           d="M 15,15.803 13.715,15.03"
           id="path7" /><path
           d="M 10.285,12.97 9,12.197"
           id="path8" /><path
           d="m 14,3 v 4 a 1,1 0 0 0 1,1 h 4"
           id="path9" /><path
           d="M 13.71003,21 H 7 C 5.8954305,21 5,20.104569 5,19 V 5 C 5,3.8954305 5.8954305,3 7,3 h 7 l 5,5 v 6.66401"
           id="path10" /></g></g></g></svg>
