<svg width="397" height="398" xmlns="http://www.w3.org/2000/svg" xmlns:xlink="http://www.w3.org/1999/xlink" xml:space="preserve" overflow="hidden"><g transform="translate(-385 -161)"><path d="M293.615 198.5C293.615 205.352 288.06 210.906 281.208 210.906L145.732 210.906 182.455 247.629C187.126 252.642 186.848 260.492 181.836 265.163 177.071 269.603 169.685 269.603 164.92 265.163L107.025 207.267C102.187 202.423 102.187 194.577 107.025 189.733L164.92 131.837C169.933 127.166 177.784 127.443 182.455 132.456 186.894 137.221 186.894 144.607 182.455 149.371L145.732 186.094 281.208 186.094C288.06 186.094 293.615 191.648 293.615 198.5Z" transform="matrix(1 0 0 1.00252 385 161)"/><path d="M41.3542 198.5C41.3542 285.289 111.711 355.646 198.5 355.646 285.289 355.646 355.646 285.289 355.646 198.5 355.646 111.711 285.289 41.3542 198.5 41.3542 111.711 41.3542 41.3542 111.711 41.3542 198.5ZM66.1667 198.5C66.1667 125.414 125.414 66.1667 198.5 66.1667 271.586 66.1667 330.833 125.414 330.833 198.5 330.833 271.586 271.586 330.833 198.5 330.833 125.414 330.833 66.1667 271.586 66.1667 198.5Z" transform="matrix(1 0 0 1.00252 385 161)"/></g></svg>