<?xml version="1.0" encoding="UTF-8"?>
<svg width="1200pt" height="1200pt" version="1.1" viewBox="0 0 1200 1200" xmlns="http://www.w3.org/2000/svg">
 <path d="m600 195.6c19.199 0 34.801-15.602 34.801-34.801v-96c0-19.199-15.602-34.801-34.801-34.801s-34.801 15.602-34.801 34.801v97.199c0 18 15.602 33.602 34.801 33.602z" fill="#ff814a"/>
 <path d="m734.4 225.6c4.8008 2.3984 9.6016 3.6016 14.398 3.6016 13.199 0 25.199-7.1992 31.199-20.398l40.801-87.602c8.3984-16.801 0-37.199-16.801-45.602-16.801-8.3984-37.199 0-45.602 16.801l-39.594 87.598c-8.4023 16.801-1.1992 37.199 15.598 45.602z" fill="#ff814a"/>
 <path d="m420 208.8c6 12 18 20.398 31.199 20.398 4.8008 0 9.6016-1.1992 14.398-3.6016 16.801-8.3984 25.199-28.801 16.801-45.602l-40.801-87.602c-8.3984-16.801-28.801-25.199-45.602-16.801-16.801 8.3984-25.199 28.801-16.801 45.602z" fill="#ff814a"/>
 <path d="m632.4 746.4c0 17.895-14.504 32.402-32.398 32.402s-32.398-14.508-32.398-32.402c0-17.891 14.504-32.398 32.398-32.398s32.398 14.508 32.398 32.398z" fill="#ff814a"/>
 <path d="m598.8 691.2s1.1992 0 0 0c13.199 0 22.801-9.6016 24-21.602l6-133.2v-2.3984c-1.1992-15.602-14.398-27.602-30-27.602-15.602 1.1992-27.602 14.398-27.602 30l6 133.2c1.1992 12.004 9.6016 21.602 21.602 21.602z" fill="#ff814a"/>
 <path d="m871.2 333.6c-4.8008-24-25.199-42-50.398-42h-441.6c-24 0-45.602 18-50.398 42l-150 806.4c-2.3984 15.602 9.6016 30 25.199 30h76.801c12 0 22.801-8.3984 25.199-20.398l32.398-171.6h526.8l32.398 171.6c2.3984 12 13.199 20.398 25.199 20.398h73.203c15.602 0 27.602-14.398 25.199-30zm-87.598 494.4h-367.2c-33.602 0-54-36-37.199-64.801l183.6-315.6c16.801-28.801 57.602-28.801 74.398 0l183.6 315.6c15.598 28.801-4.8008 64.801-37.199 64.801z" fill="#ff814a"/>
</svg>
