<?xml version="1.0" encoding="utf-8" standalone="no"?>
<!DOCTYPE svg PUBLIC "-//W3C//DTD SVG 1.1//EN"
  "http://www.w3.org/Graphics/SVG/1.1/DTD/svg11.dtd">
<svg xmlns:xlink="http://www.w3.org/1999/xlink" width="684pt" height="347.04pt" viewBox="0 0 684 347.04" xmlns="http://www.w3.org/2000/svg" version="1.1">
 <metadata>
  <rdf:RDF xmlns:dc="http://purl.org/dc/elements/1.1/" xmlns:cc="http://creativecommons.org/ns#" xmlns:rdf="http://www.w3.org/1999/02/22-rdf-syntax-ns#">
   <cc:Work>
    <dc:type rdf:resource="http://purl.org/dc/dcmitype/StillImage"/>
    <dc:date>2025-09-04T16:20:48.797620</dc:date>
    <dc:format>image/svg+xml</dc:format>
    <dc:creator>
     <cc:Agent>
      <dc:title>Matplotlib v3.10.6, https://matplotlib.org/</dc:title>
     </cc:Agent>
    </dc:creator>
   </cc:Work>
  </rdf:RDF>
 </metadata>
 <defs>
  <style type="text/css">*{stroke-linejoin: round; stroke-linecap: butt}</style>
 </defs>
 <g id="figure_1">
  <g id="patch_1">
   <path d="M 0 347.04 
L 684 347.04 
L 684 -0 
L 0 -0 
z
" style="fill: #1e1e1e"/>
  </g>
  <g id="axes_1">
   <g id="text_1">
    <!-- $ khx-ct 'Hello from CLI!' -c cyan -->
    <g style="fill: #ff008c" transform="translate(40.68 111.958875) scale(0.18 -0.18)">
     <defs>
      <path id="DejaVuSansMono-Bold-24" d="M 2169 1650 
L 2169 706 
Q 2366 734 2475 857 
Q 2584 981 2584 1172 
Q 2584 1366 2476 1489 
Q 2369 1613 2169 1650 
z
M 1728 2553 
L 1728 3438 
Q 1534 3413 1436 3308 
Q 1338 3203 1338 3022 
Q 1338 2844 1436 2725 
Q 1534 2606 1728 2553 
z
M 2169 -941 
L 1728 -941 
L 1725 0 
Q 1453 9 1156 81 
Q 859 153 538 288 
L 538 1106 
Q 859 916 1161 812 
Q 1463 709 1728 706 
L 1728 1734 
Q 1113 1856 813 2154 
Q 513 2453 513 2944 
Q 513 3466 831 3775 
Q 1150 4084 1728 4122 
L 1728 4863 
L 2169 4863 
L 2172 4122 
Q 2394 4109 2633 4065 
Q 2872 4022 3122 3944 
L 3122 3144 
Q 2928 3269 2690 3344 
Q 2453 3419 2169 3438 
L 2169 2478 
Q 2784 2381 3098 2057 
Q 3413 1734 3413 1197 
Q 3413 684 3073 356 
Q 2734 28 2172 0 
L 2169 -941 
z
" transform="scale(0.015625)"/>
      <path id="DejaVuSansMono-Bold-20" transform="scale(0.015625)"/>
      <path id="DejaVuSansMono-Bold-6b" d="M 544 4863 
L 1459 4863 
L 1459 2309 
L 2559 3500 
L 3669 3500 
L 2344 2194 
L 3744 0 
L 2731 0 
L 1772 1638 
L 1459 1338 
L 1459 0 
L 544 0 
L 544 4863 
z
" transform="scale(0.015625)"/>
      <path id="DejaVuSansMono-Bold-68" d="M 3347 2272 
L 3347 0 
L 2438 0 
L 2438 2131 
Q 2438 2509 2330 2671 
Q 2222 2834 1978 2834 
Q 1728 2834 1587 2614 
Q 1447 2394 1447 2003 
L 1447 0 
L 538 0 
L 538 4863 
L 1447 4863 
L 1447 2975 
Q 1544 3266 1778 3425 
Q 2013 3584 2344 3584 
Q 2841 3584 3094 3254 
Q 3347 2925 3347 2272 
z
" transform="scale(0.015625)"/>
      <path id="DejaVuSansMono-Bold-78" d="M 3578 3500 
L 2400 1825 
L 3681 0 
L 2613 0 
L 1925 1178 
L 1241 0 
L 172 0 
L 1466 1825 
L 275 3500 
L 1344 3500 
L 1925 2456 
L 2509 3500 
L 3578 3500 
z
" transform="scale(0.015625)"/>
      <path id="DejaVuSansMono-Bold-2d" d="M 941 2297 
L 2913 2297 
L 2913 1388 
L 941 1388 
L 941 2297 
z
" transform="scale(0.015625)"/>
      <path id="DejaVuSansMono-Bold-63" d="M 3316 178 
Q 3084 44 2818 -23 
Q 2553 -91 2247 -91 
Q 1438 -91 981 396 
Q 525 884 525 1747 
Q 525 2613 984 3102 
Q 1444 3591 2253 3591 
Q 2534 3591 2795 3525 
Q 3056 3459 3316 3322 
L 3316 2484 
Q 3116 2656 2877 2748 
Q 2638 2841 2381 2841 
Q 1934 2841 1693 2556 
Q 1453 2272 1453 1747 
Q 1453 1222 1693 940 
Q 1934 659 2381 659 
Q 2647 659 2878 748 
Q 3109 838 3316 1019 
L 3316 178 
z
" transform="scale(0.015625)"/>
      <path id="DejaVuSansMono-Bold-74" d="M 2156 4494 
L 2156 3500 
L 3353 3500 
L 3353 2797 
L 2156 2797 
L 2156 1141 
Q 2156 906 2270 804 
Q 2384 703 2650 703 
L 3353 703 
L 3353 0 
L 2584 0 
Q 1797 0 1519 251 
Q 1241 503 1241 1184 
L 1241 2797 
L 347 2797 
L 347 3500 
L 1241 3500 
L 1241 4494 
L 2156 4494 
z
" transform="scale(0.015625)"/>
      <path id="DejaVuSansMono-Bold-27" d="M 2322 4666 
L 2322 2931 
L 1522 2931 
L 1522 4666 
L 2322 4666 
z
" transform="scale(0.015625)"/>
      <path id="DejaVuSansMono-Bold-48" d="M 428 4666 
L 1350 4666 
L 1350 2888 
L 2503 2888 
L 2503 4666 
L 3425 4666 
L 3425 0 
L 2503 0 
L 2503 2075 
L 1350 2075 
L 1350 0 
L 428 0 
L 428 4666 
z
" transform="scale(0.015625)"/>
      <path id="DejaVuSansMono-Bold-65" d="M 3444 172 
Q 3125 41 2794 -25 
Q 2463 -91 2094 -91 
Q 1216 -91 752 379 
Q 288 850 288 1734 
Q 288 2591 734 3087 
Q 1181 3584 1953 3584 
Q 2731 3584 3161 3123 
Q 3591 2663 3591 1825 
L 3591 1453 
L 1219 1453 
Q 1222 1041 1462 837 
Q 1703 634 2181 634 
Q 2497 634 2803 725 
Q 3109 816 3444 1013 
L 3444 172 
z
M 2669 2141 
Q 2663 2503 2483 2689 
Q 2303 2875 1953 2875 
Q 1638 2875 1450 2683 
Q 1263 2491 1228 2138 
L 2669 2141 
z
" transform="scale(0.015625)"/>
      <path id="DejaVuSansMono-Bold-6c" d="M 1209 1459 
L 1209 4159 
L 281 4159 
L 281 4863 
L 2125 4863 
L 2125 1459 
Q 2125 1047 2253 875 
Q 2381 703 2688 703 
L 3419 703 
L 3419 0 
L 2431 0 
Q 1778 0 1493 337 
Q 1209 675 1209 1459 
z
" transform="scale(0.015625)"/>
      <path id="DejaVuSansMono-Bold-6f" d="M 1925 2841 
Q 1597 2841 1409 2552 
Q 1222 2263 1222 1747 
Q 1222 1231 1409 942 
Q 1597 653 1925 653 
Q 2256 653 2443 942 
Q 2631 1231 2631 1747 
Q 2631 2263 2443 2552 
Q 2256 2841 1925 2841 
z
M 306 1747 
Q 306 2594 745 3089 
Q 1184 3584 1925 3584 
Q 2669 3584 3108 3089 
Q 3547 2594 3547 1747 
Q 3547 900 3108 404 
Q 2669 -91 1925 -91 
Q 1184 -91 745 404 
Q 306 900 306 1747 
z
" transform="scale(0.015625)"/>
      <path id="DejaVuSansMono-Bold-66" d="M 2309 3806 
L 2309 3500 
L 3384 3500 
L 3384 2797 
L 2309 2797 
L 2309 0 
L 1394 0 
L 1394 2797 
L 544 2797 
L 544 3500 
L 1394 3500 
L 1394 3744 
Q 1394 4375 1656 4619 
Q 1919 4863 2631 4863 
L 3384 4863 
L 3384 4159 
L 2669 4159 
Q 2463 4159 2389 4084 
Q 2316 4009 2309 3806 
z
" transform="scale(0.015625)"/>
      <path id="DejaVuSansMono-Bold-72" d="M 3597 2534 
Q 3447 2672 3245 2740 
Q 3044 2809 2803 2809 
Q 2513 2809 2295 2707 
Q 2078 2606 1959 2413 
Q 1884 2294 1854 2125 
Q 1825 1956 1825 1613 
L 1825 0 
L 909 0 
L 909 3500 
L 1825 3500 
L 1825 2956 
Q 1959 3256 2237 3420 
Q 2516 3584 2888 3584 
Q 3075 3584 3254 3539 
Q 3434 3494 3597 3406 
L 3597 2534 
z
" transform="scale(0.015625)"/>
      <path id="DejaVuSansMono-Bold-6d" d="M 2156 3150 
Q 2259 3372 2418 3478 
Q 2578 3584 2809 3584 
Q 3263 3584 3436 3271 
Q 3609 2959 3609 1972 
L 3609 0 
L 2859 0 
L 2859 2247 
Q 2859 2638 2800 2769 
Q 2741 2900 2584 2900 
Q 2428 2900 2365 2765 
Q 2303 2631 2303 2247 
L 2303 0 
L 1563 0 
L 1563 2247 
Q 1563 2631 1500 2765 
Q 1438 2900 1281 2900 
Q 1125 2900 1065 2769 
Q 1006 2638 1006 2247 
L 1006 0 
L 256 0 
L 256 3500 
L 922 3500 
L 922 3138 
Q 1000 3344 1172 3464 
Q 1344 3584 1556 3584 
Q 1769 3584 1944 3457 
Q 2119 3331 2156 3150 
z
" transform="scale(0.015625)"/>
      <path id="DejaVuSansMono-Bold-43" d="M 3378 134 
Q 3159 22 2918 -34 
Q 2678 -91 2413 -91 
Q 1469 -91 972 531 
Q 475 1153 475 2328 
Q 475 3506 972 4128 
Q 1469 4750 2413 4750 
Q 2678 4750 2922 4694 
Q 3166 4638 3378 4525 
L 3378 3500 
Q 3141 3719 2917 3820 
Q 2694 3922 2456 3922 
Q 1950 3922 1692 3520 
Q 1434 3119 1434 2328 
Q 1434 1541 1692 1139 
Q 1950 738 2456 738 
Q 2694 738 2917 839 
Q 3141 941 3378 1159 
L 3378 134 
z
" transform="scale(0.015625)"/>
      <path id="DejaVuSansMono-Bold-4c" d="M 703 0 
L 703 4666 
L 1625 4666 
L 1625 813 
L 3597 813 
L 3597 0 
L 703 0 
z
" transform="scale(0.015625)"/>
      <path id="DejaVuSansMono-Bold-49" d="M 538 3853 
L 538 4666 
L 3316 4666 
L 3316 3853 
L 2388 3853 
L 2388 813 
L 3316 813 
L 3316 0 
L 538 0 
L 538 813 
L 1466 813 
L 1466 3853 
L 538 3853 
z
" transform="scale(0.015625)"/>
      <path id="DejaVuSansMono-Bold-21" d="M 1509 884 
L 2344 884 
L 2344 0 
L 1509 0 
L 1509 884 
z
M 1509 4666 
L 2344 4666 
L 2344 2619 
L 2241 1503 
L 1619 1503 
L 1509 2619 
L 1509 4666 
z
" transform="scale(0.015625)"/>
      <path id="DejaVuSansMono-Bold-79" d="M 2222 -378 
Q 2038 -872 1780 -1098 
Q 1522 -1325 1153 -1325 
L 397 -1325 
L 397 -628 
L 769 -628 
Q 1050 -628 1181 -533 
Q 1313 -438 1447 -91 
L 1516 97 
L 184 3500 
L 1147 3500 
L 1947 1228 
L 2713 3500 
L 3675 3500 
L 2222 -378 
z
" transform="scale(0.015625)"/>
      <path id="DejaVuSansMono-Bold-61" d="M 2188 1644 
Q 1675 1644 1472 1512 
Q 1269 1381 1269 1063 
Q 1269 825 1409 684 
Q 1550 544 1791 544 
Q 2153 544 2353 817 
Q 2553 1091 2553 1581 
L 2553 1644 
L 2188 1644 
z
M 3463 1997 
L 3463 0 
L 2553 0 
L 2553 391 
Q 2388 159 2128 34 
Q 1869 -91 1556 -91 
Q 959 -91 626 225 
Q 294 541 294 1106 
Q 294 1719 691 2011 
Q 1088 2303 1919 2303 
L 2553 2303 
L 2553 2456 
Q 2553 2678 2392 2792 
Q 2231 2906 1919 2906 
Q 1591 2906 1283 2823 
Q 975 2741 641 2559 
L 641 3341 
Q 944 3466 1256 3525 
Q 1569 3584 1919 3584 
Q 2772 3584 3117 3237 
Q 3463 2891 3463 1997 
z
" transform="scale(0.015625)"/>
      <path id="DejaVuSansMono-Bold-6e" d="M 3347 2272 
L 3347 0 
L 2438 0 
L 2438 2131 
Q 2438 2513 2330 2677 
Q 2222 2841 1978 2841 
Q 1731 2841 1589 2619 
Q 1447 2397 1447 2003 
L 1447 0 
L 538 0 
L 538 3500 
L 1447 3500 
L 1447 2975 
Q 1544 3266 1778 3425 
Q 2013 3584 2344 3584 
Q 2841 3584 3094 3254 
Q 3347 2925 3347 2272 
z
" transform="scale(0.015625)"/>
     </defs>
     <use xlink:href="#DejaVuSansMono-Bold-24"/>
     <use xlink:href="#DejaVuSansMono-Bold-20" transform="translate(60.205078 0)"/>
     <use xlink:href="#DejaVuSansMono-Bold-6b" transform="translate(120.410156 0)"/>
     <use xlink:href="#DejaVuSansMono-Bold-68" transform="translate(180.615234 0)"/>
     <use xlink:href="#DejaVuSansMono-Bold-78" transform="translate(240.820312 0)"/>
     <use xlink:href="#DejaVuSansMono-Bold-2d" transform="translate(301.025391 0)"/>
     <use xlink:href="#DejaVuSansMono-Bold-63" transform="translate(361.230469 0)"/>
     <use xlink:href="#DejaVuSansMono-Bold-74" transform="translate(421.435547 0)"/>
     <use xlink:href="#DejaVuSansMono-Bold-20" transform="translate(481.640625 0)"/>
     <use xlink:href="#DejaVuSansMono-Bold-27" transform="translate(541.845703 0)"/>
     <use xlink:href="#DejaVuSansMono-Bold-48" transform="translate(602.050781 0)"/>
     <use xlink:href="#DejaVuSansMono-Bold-65" transform="translate(662.255859 0)"/>
     <use xlink:href="#DejaVuSansMono-Bold-6c" transform="translate(722.460938 0)"/>
     <use xlink:href="#DejaVuSansMono-Bold-6c" transform="translate(782.666016 0)"/>
     <use xlink:href="#DejaVuSansMono-Bold-6f" transform="translate(842.871094 0)"/>
     <use xlink:href="#DejaVuSansMono-Bold-20" transform="translate(903.076172 0)"/>
     <use xlink:href="#DejaVuSansMono-Bold-66" transform="translate(963.28125 0)"/>
     <use xlink:href="#DejaVuSansMono-Bold-72" transform="translate(1023.486328 0)"/>
     <use xlink:href="#DejaVuSansMono-Bold-6f" transform="translate(1083.691406 0)"/>
     <use xlink:href="#DejaVuSansMono-Bold-6d" transform="translate(1143.896484 0)"/>
     <use xlink:href="#DejaVuSansMono-Bold-20" transform="translate(1204.101562 0)"/>
     <use xlink:href="#DejaVuSansMono-Bold-43" transform="translate(1264.306641 0)"/>
     <use xlink:href="#DejaVuSansMono-Bold-4c" transform="translate(1324.511719 0)"/>
     <use xlink:href="#DejaVuSansMono-Bold-49" transform="translate(1384.716797 0)"/>
     <use xlink:href="#DejaVuSansMono-Bold-21" transform="translate(1444.921875 0)"/>
     <use xlink:href="#DejaVuSansMono-Bold-27" transform="translate(1505.126953 0)"/>
     <use xlink:href="#DejaVuSansMono-Bold-20" transform="translate(1565.332031 0)"/>
     <use xlink:href="#DejaVuSansMono-Bold-2d" transform="translate(1625.537109 0)"/>
     <use xlink:href="#DejaVuSansMono-Bold-63" transform="translate(1685.742188 0)"/>
     <use xlink:href="#DejaVuSansMono-Bold-20" transform="translate(1745.947266 0)"/>
     <use xlink:href="#DejaVuSansMono-Bold-63" transform="translate(1806.152344 0)"/>
     <use xlink:href="#DejaVuSansMono-Bold-79" transform="translate(1866.357422 0)"/>
     <use xlink:href="#DejaVuSansMono-Bold-61" transform="translate(1926.5625 0)"/>
     <use xlink:href="#DejaVuSansMono-Bold-6e" transform="translate(1986.767578 0)"/>
    </g>
   </g>
   <g id="text_2">
    <!-- # Command line interface demo -->
    <g style="fill: #888888" transform="translate(40.68 177.9775) scale(0.16 -0.16)">
     <defs>
      <path id="DejaVuSansMono-23" d="M 2138 4594 
L 1813 3297 
L 2578 3297 
L 2906 4594 
L 3406 4594 
L 3078 3297 
L 3841 3297 
L 3841 2816 
L 2963 2816 
L 2700 1772 
L 3481 1772 
L 3481 1294 
L 2578 1294 
L 2253 0 
L 1753 0 
L 2081 1294 
L 1313 1294 
L 984 0 
L 488 0 
L 813 1294 
L 6 1294 
L 6 1772 
L 934 1772 
L 1197 2816 
L 366 2816 
L 366 3297 
L 1313 3297 
L 1638 4594 
L 2138 4594 
z
M 2463 2816 
L 1697 2816 
L 1434 1772 
L 2203 1772 
L 2463 2816 
z
" transform="scale(0.015625)"/>
      <path id="DejaVuSansMono-20" transform="scale(0.015625)"/>
      <path id="DejaVuSansMono-43" d="M 3353 166 
Q 3113 38 2859 -26 
Q 2606 -91 2322 -91 
Q 1425 -91 929 543 
Q 434 1178 434 2328 
Q 434 3472 932 4111 
Q 1431 4750 2322 4750 
Q 2606 4750 2859 4686 
Q 3113 4622 3353 4494 
L 3353 3847 
Q 3122 4038 2856 4138 
Q 2591 4238 2322 4238 
Q 1706 4238 1400 3763 
Q 1094 3288 1094 2328 
Q 1094 1372 1400 897 
Q 1706 422 2322 422 
Q 2597 422 2861 522 
Q 3125 622 3353 813 
L 3353 166 
z
" transform="scale(0.015625)"/>
      <path id="DejaVuSansMono-6f" d="M 1925 3097 
Q 1488 3097 1263 2756 
Q 1038 2416 1038 1747 
Q 1038 1081 1263 739 
Q 1488 397 1925 397 
Q 2366 397 2591 739 
Q 2816 1081 2816 1747 
Q 2816 2416 2591 2756 
Q 2366 3097 1925 3097 
z
M 1925 3584 
Q 2653 3584 3039 3112 
Q 3425 2641 3425 1747 
Q 3425 850 3040 379 
Q 2656 -91 1925 -91 
Q 1197 -91 812 379 
Q 428 850 428 1747 
Q 428 2641 812 3112 
Q 1197 3584 1925 3584 
z
" transform="scale(0.015625)"/>
      <path id="DejaVuSansMono-6d" d="M 2113 3144 
Q 2219 3369 2383 3476 
Q 2547 3584 2778 3584 
Q 3200 3584 3373 3257 
Q 3547 2931 3547 2028 
L 3547 0 
L 3022 0 
L 3022 2003 
Q 3022 2744 2939 2923 
Q 2856 3103 2638 3103 
Q 2388 3103 2295 2911 
Q 2203 2719 2203 2003 
L 2203 0 
L 1678 0 
L 1678 2003 
Q 1678 2753 1589 2928 
Q 1500 3103 1269 3103 
Q 1041 3103 952 2911 
Q 863 2719 863 2003 
L 863 0 
L 341 0 
L 341 3500 
L 863 3500 
L 863 3200 
Q 966 3388 1120 3486 
Q 1275 3584 1472 3584 
Q 1709 3584 1867 3475 
Q 2025 3366 2113 3144 
z
" transform="scale(0.015625)"/>
      <path id="DejaVuSansMono-61" d="M 2194 1759 
L 2003 1759 
Q 1500 1759 1245 1582 
Q 991 1406 991 1056 
Q 991 741 1181 566 
Q 1372 391 1709 391 
Q 2184 391 2456 720 
Q 2728 1050 2731 1631 
L 2731 1759 
L 2194 1759 
z
M 3309 1997 
L 3309 0 
L 2731 0 
L 2731 519 
Q 2547 206 2267 57 
Q 1988 -91 1588 -91 
Q 1053 -91 734 211 
Q 416 513 416 1019 
Q 416 1603 808 1906 
Q 1200 2209 1959 2209 
L 2731 2209 
L 2731 2300 
Q 2728 2719 2518 2908 
Q 2309 3097 1850 3097 
Q 1556 3097 1256 3012 
Q 956 2928 672 2766 
L 672 3341 
Q 991 3463 1283 3523 
Q 1575 3584 1850 3584 
Q 2284 3584 2592 3456 
Q 2900 3328 3091 3072 
Q 3209 2916 3259 2686 
Q 3309 2456 3309 1997 
z
" transform="scale(0.015625)"/>
      <path id="DejaVuSansMono-6e" d="M 3284 2169 
L 3284 0 
L 2706 0 
L 2706 2169 
Q 2706 2641 2540 2862 
Q 2375 3084 2022 3084 
Q 1619 3084 1401 2798 
Q 1184 2513 1184 1978 
L 1184 0 
L 609 0 
L 609 3500 
L 1184 3500 
L 1184 2975 
Q 1338 3275 1600 3429 
Q 1863 3584 2222 3584 
Q 2756 3584 3020 3232 
Q 3284 2881 3284 2169 
z
" transform="scale(0.015625)"/>
      <path id="DejaVuSansMono-64" d="M 2681 3053 
L 2681 4863 
L 3256 4863 
L 3256 0 
L 2681 0 
L 2681 441 
Q 2538 181 2298 45 
Q 2059 -91 1747 -91 
Q 1113 -91 748 401 
Q 384 894 384 1759 
Q 384 2613 750 3098 
Q 1116 3584 1747 3584 
Q 2063 3584 2303 3448 
Q 2544 3313 2681 3053 
z
M 991 1747 
Q 991 1078 1203 737 
Q 1416 397 1831 397 
Q 2247 397 2464 740 
Q 2681 1084 2681 1747 
Q 2681 2413 2464 2755 
Q 2247 3097 1831 3097 
Q 1416 3097 1203 2756 
Q 991 2416 991 1747 
z
" transform="scale(0.015625)"/>
      <path id="DejaVuSansMono-6c" d="M 1997 1269 
Q 1997 881 2139 684 
Q 2281 488 2559 488 
L 3231 488 
L 3231 0 
L 2503 0 
Q 1988 0 1705 331 
Q 1422 663 1422 1269 
L 1422 4447 
L 500 4447 
L 500 4897 
L 1997 4897 
L 1997 1269 
z
" transform="scale(0.015625)"/>
      <path id="DejaVuSansMono-69" d="M 800 3500 
L 2272 3500 
L 2272 447 
L 3413 447 
L 3413 0 
L 556 0 
L 556 447 
L 1697 447 
L 1697 3053 
L 800 3053 
L 800 3500 
z
M 1697 4863 
L 2272 4863 
L 2272 4134 
L 1697 4134 
L 1697 4863 
z
" transform="scale(0.015625)"/>
      <path id="DejaVuSansMono-65" d="M 3475 1894 
L 3475 1613 
L 984 1613 
L 984 1594 
Q 984 1022 1282 709 
Q 1581 397 2125 397 
Q 2400 397 2700 484 
Q 3000 572 3341 750 
L 3341 178 
Q 3013 44 2708 -23 
Q 2403 -91 2119 -91 
Q 1303 -91 843 398 
Q 384 888 384 1747 
Q 384 2584 834 3084 
Q 1284 3584 2034 3584 
Q 2703 3584 3089 3131 
Q 3475 2678 3475 1894 
z
M 2900 2063 
Q 2888 2569 2661 2833 
Q 2434 3097 2009 3097 
Q 1594 3097 1325 2822 
Q 1056 2547 1006 2059 
L 2900 2063 
z
" transform="scale(0.015625)"/>
      <path id="DejaVuSansMono-74" d="M 1919 4494 
L 1919 3500 
L 3225 3500 
L 3225 3053 
L 1919 3053 
L 1919 1153 
Q 1919 766 2066 612 
Q 2213 459 2578 459 
L 3225 459 
L 3225 0 
L 2522 0 
Q 1875 0 1609 259 
Q 1344 519 1344 1153 
L 1344 3053 
L 409 3053 
L 409 3500 
L 1344 3500 
L 1344 4494 
L 1919 4494 
z
" transform="scale(0.015625)"/>
      <path id="DejaVuSansMono-72" d="M 3609 2778 
Q 3425 2922 3234 2987 
Q 3044 3053 2816 3053 
Q 2278 3053 1993 2715 
Q 1709 2378 1709 1741 
L 1709 0 
L 1131 0 
L 1131 3500 
L 1709 3500 
L 1709 2816 
Q 1853 3188 2151 3386 
Q 2450 3584 2859 3584 
Q 3072 3584 3256 3531 
Q 3441 3478 3609 3366 
L 3609 2778 
z
" transform="scale(0.015625)"/>
      <path id="DejaVuSansMono-66" d="M 3322 4863 
L 3322 4384 
L 2669 4384 
Q 2359 4384 2239 4257 
Q 2119 4131 2119 3809 
L 2119 3500 
L 3322 3500 
L 3322 3053 
L 2119 3053 
L 2119 0 
L 1544 0 
L 1544 3053 
L 609 3053 
L 609 3500 
L 1544 3500 
L 1544 3744 
Q 1544 4319 1808 4591 
Q 2072 4863 2631 4863 
L 3322 4863 
z
" transform="scale(0.015625)"/>
      <path id="DejaVuSansMono-63" d="M 3316 178 
Q 3084 44 2839 -23 
Q 2594 -91 2338 -91 
Q 1525 -91 1067 396 
Q 609 884 609 1747 
Q 609 2609 1067 3096 
Q 1525 3584 2338 3584 
Q 2591 3584 2831 3518 
Q 3072 3453 3316 3316 
L 3316 2713 
Q 3088 2916 2858 3006 
Q 2628 3097 2338 3097 
Q 1797 3097 1506 2747 
Q 1216 2397 1216 1747 
Q 1216 1100 1508 748 
Q 1800 397 2338 397 
Q 2638 397 2875 489 
Q 3113 581 3316 775 
L 3316 178 
z
" transform="scale(0.015625)"/>
     </defs>
     <use xlink:href="#DejaVuSansMono-23"/>
     <use xlink:href="#DejaVuSansMono-20" transform="translate(60.205078 0)"/>
     <use xlink:href="#DejaVuSansMono-43" transform="translate(120.410156 0)"/>
     <use xlink:href="#DejaVuSansMono-6f" transform="translate(180.615234 0)"/>
     <use xlink:href="#DejaVuSansMono-6d" transform="translate(240.820312 0)"/>
     <use xlink:href="#DejaVuSansMono-6d" transform="translate(301.025391 0)"/>
     <use xlink:href="#DejaVuSansMono-61" transform="translate(361.230469 0)"/>
     <use xlink:href="#DejaVuSansMono-6e" transform="translate(421.435547 0)"/>
     <use xlink:href="#DejaVuSansMono-64" transform="translate(481.640625 0)"/>
     <use xlink:href="#DejaVuSansMono-20" transform="translate(541.845703 0)"/>
     <use xlink:href="#DejaVuSansMono-6c" transform="translate(602.050781 0)"/>
     <use xlink:href="#DejaVuSansMono-69" transform="translate(662.255859 0)"/>
     <use xlink:href="#DejaVuSansMono-6e" transform="translate(722.460938 0)"/>
     <use xlink:href="#DejaVuSansMono-65" transform="translate(782.666016 0)"/>
     <use xlink:href="#DejaVuSansMono-20" transform="translate(842.871094 0)"/>
     <use xlink:href="#DejaVuSansMono-69" transform="translate(903.076172 0)"/>
     <use xlink:href="#DejaVuSansMono-6e" transform="translate(963.28125 0)"/>
     <use xlink:href="#DejaVuSansMono-74" transform="translate(1023.486328 0)"/>
     <use xlink:href="#DejaVuSansMono-65" transform="translate(1083.691406 0)"/>
     <use xlink:href="#DejaVuSansMono-72" transform="translate(1143.896484 0)"/>
     <use xlink:href="#DejaVuSansMono-66" transform="translate(1204.101562 0)"/>
     <use xlink:href="#DejaVuSansMono-61" transform="translate(1264.306641 0)"/>
     <use xlink:href="#DejaVuSansMono-63" transform="translate(1324.511719 0)"/>
     <use xlink:href="#DejaVuSansMono-65" transform="translate(1384.716797 0)"/>
     <use xlink:href="#DejaVuSansMono-20" transform="translate(1444.921875 0)"/>
     <use xlink:href="#DejaVuSansMono-64" transform="translate(1505.126953 0)"/>
     <use xlink:href="#DejaVuSansMono-65" transform="translate(1565.332031 0)"/>
     <use xlink:href="#DejaVuSansMono-6d" transform="translate(1625.537109 0)"/>
     <use xlink:href="#DejaVuSansMono-6f" transform="translate(1685.742188 0)"/>
    </g>
   </g>
   <g id="text_3">
    <!-- Output: -->
    <g style="fill: #ffffff" transform="translate(40.68 245.56675) scale(0.2 -0.2)">
     <defs>
      <path id="DejaVuSansMono-Bold-4f" d="M 1925 3922 
Q 1572 3922 1409 3545 
Q 1247 3169 1247 2328 
Q 1247 1491 1409 1114 
Q 1572 738 1925 738 
Q 2281 738 2443 1114 
Q 2606 1491 2606 2328 
Q 2606 3169 2443 3545 
Q 2281 3922 1925 3922 
z
M 288 2328 
Q 288 3525 702 4137 
Q 1116 4750 1925 4750 
Q 2738 4750 3152 4137 
Q 3566 3525 3566 2328 
Q 3566 1134 3152 521 
Q 2738 -91 1925 -91 
Q 1116 -91 702 521 
Q 288 1134 288 2328 
z
" transform="scale(0.015625)"/>
      <path id="DejaVuSansMono-Bold-75" d="M 500 1222 
L 500 3500 
L 1416 3500 
L 1416 1363 
Q 1416 984 1522 821 
Q 1628 659 1875 659 
Q 2122 659 2261 878 
Q 2400 1097 2400 1491 
L 2400 3500 
L 3316 3500 
L 3316 0 
L 2400 0 
L 2400 519 
Q 2303 228 2070 68 
Q 1838 -91 1509 -91 
Q 1009 -91 754 240 
Q 500 572 500 1222 
z
" transform="scale(0.015625)"/>
      <path id="DejaVuSansMono-Bold-70" d="M 1381 494 
L 1381 -1331 
L 469 -1331 
L 469 3500 
L 1381 3500 
L 1381 2975 
Q 1525 3278 1759 3431 
Q 1994 3584 2309 3584 
Q 2909 3584 3240 3103 
Q 3572 2622 3572 1747 
Q 3572 859 3236 384 
Q 2900 -91 2278 -91 
Q 1997 -91 1773 54 
Q 1550 200 1381 494 
z
M 2656 1753 
Q 2656 2259 2487 2546 
Q 2319 2834 2022 2834 
Q 1725 2834 1553 2546 
Q 1381 2259 1381 1753 
Q 1381 1247 1553 959 
Q 1725 672 2022 672 
Q 2319 672 2487 959 
Q 2656 1247 2656 1753 
z
" transform="scale(0.015625)"/>
      <path id="DejaVuSansMono-Bold-3a" d="M 1403 3322 
L 2444 3322 
L 2444 2181 
L 1403 2181 
L 1403 3322 
z
M 1403 1147 
L 2444 1147 
L 2444 0 
L 1403 0 
L 1403 1147 
z
" transform="scale(0.015625)"/>
     </defs>
     <use xlink:href="#DejaVuSansMono-Bold-4f"/>
     <use xlink:href="#DejaVuSansMono-Bold-75" transform="translate(60.205078 0)"/>
     <use xlink:href="#DejaVuSansMono-Bold-74" transform="translate(120.410156 0)"/>
     <use xlink:href="#DejaVuSansMono-Bold-70" transform="translate(180.615234 0)"/>
     <use xlink:href="#DejaVuSansMono-Bold-75" transform="translate(240.820312 0)"/>
     <use xlink:href="#DejaVuSansMono-Bold-74" transform="translate(301.025391 0)"/>
     <use xlink:href="#DejaVuSansMono-Bold-3a" transform="translate(361.230469 0)"/>
    </g>
   </g>
   <g id="text_4">
    <!-- Hello from CLI! -->
    <g style="fill: #00ffff" transform="translate(40.68 317.061625) scale(0.38 -0.38)">
     <use xlink:href="#DejaVuSansMono-Bold-48"/>
     <use xlink:href="#DejaVuSansMono-Bold-65" transform="translate(60.205078 0)"/>
     <use xlink:href="#DejaVuSansMono-Bold-6c" transform="translate(120.410156 0)"/>
     <use xlink:href="#DejaVuSansMono-Bold-6c" transform="translate(180.615234 0)"/>
     <use xlink:href="#DejaVuSansMono-Bold-6f" transform="translate(240.820312 0)"/>
     <use xlink:href="#DejaVuSansMono-Bold-20" transform="translate(301.025391 0)"/>
     <use xlink:href="#DejaVuSansMono-Bold-66" transform="translate(361.230469 0)"/>
     <use xlink:href="#DejaVuSansMono-Bold-72" transform="translate(421.435547 0)"/>
     <use xlink:href="#DejaVuSansMono-Bold-6f" transform="translate(481.640625 0)"/>
     <use xlink:href="#DejaVuSansMono-Bold-6d" transform="translate(541.845703 0)"/>
     <use xlink:href="#DejaVuSansMono-Bold-20" transform="translate(602.050781 0)"/>
     <use xlink:href="#DejaVuSansMono-Bold-43" transform="translate(662.255859 0)"/>
     <use xlink:href="#DejaVuSansMono-Bold-4c" transform="translate(722.460938 0)"/>
     <use xlink:href="#DejaVuSansMono-Bold-49" transform="translate(782.666016 0)"/>
     <use xlink:href="#DejaVuSansMono-Bold-21" transform="translate(842.871094 0)"/>
    </g>
   </g>
  </g>
 </g>
</svg>
