<svg width="64" height="64" viewBox="0 0 64 64" fill="none" xmlns="http://www.w3.org/2000/svg">
<path fill-rule="evenodd" clip-rule="evenodd" d="M44.5 8.5C42.2909 8.5 40.5 10.2909 40.5 12.5V38.5C40.5 40.7091 42.2909 42.5 44.5 42.5H51.5C53.7091 42.5 55.5 40.7091 55.5 38.5V12.5C55.5 10.2909 53.7091 8.5 51.5 8.5H44.5ZM12.5 21.5C10.2909 21.5 8.5 23.2909 8.5 25.5V51.5C8.5 53.7091 10.2909 55.5 12.5 55.5H28.5C30.7091 55.5 32.5 53.7091 32.5 51.5V25.5C32.5 23.2909 30.7091 21.5 28.5 21.5H12.5Z" fill="#1E1E1E"/>
<path fill-rule="evenodd" clip-rule="evenodd" d="M44.5 8.5C42.2909 8.5 40.5 10.2909 40.5 12.5V38.5C40.5 40.7091 42.2909 42.5 44.5 42.5H51.5C53.7091 42.5 55.5 40.7091 55.5 38.5V12.5C55.5 10.2909 53.7091 8.5 51.5 8.5H44.5ZM12.5 21.5C10.2909 21.5 8.5 23.2909 8.5 25.5V51.5C8.5 53.7091 10.2909 55.5 12.5 55.5H28.5C30.7091 55.5 32.5 53.7091 32.5 51.5V25.5C32.5 23.2909 30.7091 21.5 28.5 21.5H12.5Z" fill="url(#paint0_linear_340_3781)"/>
<defs>
<linearGradient id="paint0_linear_340_3781" x1="50.9995" y1="14.7146" x2="17.4197" y2="52.9332" gradientUnits="userSpaceOnUse">
<stop stop-color="#005FFE"/>
<stop offset="0.28047" stop-color="#0159F5"/>
<stop offset="0.73457" stop-color="#054BDD"/>
<stop offset="1" stop-color="#0941CC"/>
</linearGradient>
</defs>
</svg>
