<svg xmlns="http://www.w3.org/2000/svg" xmlns:xlink="http://www.w3.org/1999/xlink" xmlns:inkscape="http://www.inkscape.org/namespaces/inkscape" version="1.1" width="185.134" height="62.761" viewBox="0 0 185.134 62.761">
<defs>
<path id="font_1_3" d="M.34899903 .38783265 .22099304 .41886903C.15899658 .4338684 .11999512 .48791505 .11999512 .5459595 .11999512 .61602786 .17399597 .677063 .2519989 .677063 .4189911 .677063 .44099427 .51293948 .44699098 .4678955 .44799806 .4618988 .44799806 .45588685 .45899964 .45588685 .47200013 .45588685 .47200013 .46089173 .47200013 .47990418V.68107607C.47200013 .69807437 .47200013 .7050781 .46099855 .7050781 .45399476 .7050781 .45298768 .70407107 .44599916 .69207766L.41099549 .6350403C.3809967 .6640625 .33999635 .7050781 .25099183 .7050781 .13999939 .7050781 .055999757 .61701968 .055999757 .51094058 .055999757 .4278717 .10899353 .35481263 .18699646 .3277893 .19799805 .3237915 .24899292 .31178285 .31900025 .2947693 .34599305 .28775025 .37599183 .28074647 .4039917 .24372864 .4249878 .21769715 .43499757 .18467713 .43499757 .15164185 .43499757 .080596927 .3849945 .008529663 .30099488 .008529663 .27198792 .008529663 .19599915 .013534546 .14299011 .062576297 .084991458 .116622928 .08198547 .18066406 .08099365 .21670532 .07998657 .22669983 .07199097 .22669983 .068984989 .22669983 .055999757 .22669983 .055999757 .21969605 .055999757 .20169068V.0015258789C.055999757-.015472412 .055999757-.022460938 .066986087-.022460938 .07398987-.022460938 .07499695-.020462037 .08198547-.009475708 .08198547-.008468628 .084991458-.0054626467 .117996219 .047561647 .14898682 .013534546 .21299744-.022460938 .3019867-.022460938 .4189911-.022460938 .49899293 .07559204 .49899293 .18566895 .49899293 .28575135 .43299867 .36782838 .34899903 .38783265Z"/>
<path id="font_1_15" d="M.17298889 .3996582H.31599427V.43066407H.17298889V.6147156H.147995C.14698792 .5326996 .116989139 .42565919 .018997193 .42166139V.3996582H.10398865V.12416077C.10398865 .0012512207 .19699097-.0107421879 .23298645-.0107421879 .3039856-.0107421879 .33198548 .06021118 .33198548 .12416077V.18112183H.30699159V.12615967C.30699159 .052215578 .2769928 .014251709 .23999024 .014251709 .17298889 .014251709 .17298889 .10517883 .17298889 .122161868V.3996582Z"/>
<path id="font_1_4" d="M.33299256 .076156619C.33699037 .036132814 .3639984-.005859375 .41099549-.005859375 .43199159-.005859375 .49299623 .008132935 .49299623 .089157108V.14518738H.46798707V.089157108C.46798707 .031143189 .44299317 .025131226 .43199159 .025131226 .39898683 .025131226 .394989 .07015991 .394989 .075149539V.27514649C.394989 .31707765 .394989 .3560791 .35899354 .39312745 .31999208 .43223573 .269989 .4482422 .22200012 .4482422 .13999939 .4482422 .070999149 .40115357 .070999149 .335083 .070999149 .30508424 .09098816 .28808595 .116989139 .28808595 .14498902 .28808595 .16299439 .30807496 .16299439 .33407594 .16299439 .3460846 .1579895 .3790741 .11199951 .38008119 .13899231 .41519166 .18798828 .426239 .21998596 .426239 .2689972 .426239 .32598878 .38710023 .32598878 .29808045V.26123048C.2749939 .2582245 .20498657 .25523377 .14199829 .22523499 .066986087 .1912384 .041992189 .13923645 .041992189 .09524536 .041992189 .014251709 .13899231-.0107421879 .20199585-.0107421879 .2679901-.010864258 .31399537 .029129029 .33299256 .076156619M.32598878 .24023438V.1401825C.32598878 .045135499 .2539978 .011138916 .20899964 .011138916 .1599884 .011138916 .11898804 .046142579 .11898804 .09616089 .11898804 .15118408 .16099549 .23422241 .32598878 .24023438Z"/>
<path id="font_1_13" d="M.16699219 .3323059V.4423828L.027999878 .43138124V.40037538C.09799194 .40037538 .10598755 .39337159 .10598755 .34431459V.076034549C.10598755 .0309906 .09498596 .0309906 .027999878 .0309906V0C.066986087 .0009918213 .11399841 .0029907227 .14199829 .0029907227 .18199158 .0029907227 .22898865 .0029907227 .2689972 0V.0309906H.24798584C.17399597 .0309906 .17199707 .042007448 .17199707 .07803345V.232193C.17199707 .33128358 .21398926 .42037965 .2899933 .42037965 .29699708 .42037965 .29899598 .42037965 .30099488 .41937257 .2979889 .41838075 .27799989 .4063568 .27799989 .38034059 .27799989 .35231019 .29899598 .33729554 .32099916 .33729554 .33898927 .33729554 .3639984 .3493042 .3639984 .3813324 .3639984 .41337586 .33299256 .4423828 .2899933 .4423828 .21699524 .4423828 .18099976 .37535096 .16699219 .3323059Z"/>
<path id="font_1_2" d="M.22698975 .3157959H.3959961C.5159912 .3157959 .6239929 .39675904 .6239929 .4967041 .6239929 .59465029 .5249939 .6826172 .3880005 .6826172H.034988405V.6516113H.05899048C.13598633 .6516113 .13798523 .64060977 .13798523 .6046295V.07795715C.13798523 .041992189 .13598633 .0309906 .05899048 .0309906H.034988405V0C.069992069 .0029907227 .14399719 .0029907227 .18199158 .0029907227 .21998596 .0029907227 .29499818 .0029907227 .32998658 0V.0309906H.30599977C.22898865 .0309906 .22698975 .041992189 .22698975 .07795715V.3157959M.22399903 .34179688V.6116333C.22399903 .64460757 .22599793 .6516113 .272995 .6516113H.3619995C.5209961 .6516113 .5209961 .54566958 .5209961 .4967041 .5209961 .4497223 .5209961 .34179688 .3619995 .34179688H.22399903Z"/>
<path id="font_1_10" d="M.1769867 .69433596 .032989503 .68333438V.6523285C.102996829 .6523285 .11099243 .6453247 .11099243 .5962982V.07601929C.11099243 .0309906 .099990848 .0309906 .032989503 .0309906V0C.06599426 .0009918213 .11898804 .0029907227 .14399719 .0029907227 .16899109 .0029907227 .21798706 .0009918213 .25498963 0V.0309906C.18798828 .0309906 .1769867 .0309906 .1769867 .07601929V.69433596Z"/>
<path id="font_1_8" d="M.11199951 .2524414C.117996219 .40126039 .20199585 .426239 .23599243 .426239 .33898927 .426239 .34899903 .2913971 .34899903 .2524414H.11199951M.11099243 .23144531H.3899994C.4119873 .23144531 .4149933 .23144531 .4149933 .2524414 .4149933 .35131837 .36099244 .4482422 .23599243 .4482422 .11999512 .4482422 .027999878 .34532167 .027999878 .22042847 .027999878 .08631897 .1329956-.0107421879 .24798584-.0107421879 .36999513-.0107421879 .4149933 .10032654 .4149933 .11933899 .4149933 .12934876 .40699769 .13134766 .4019928 .13134766 .3929901 .13134766 .3909912 .12535095 .3889923 .11734009 .35398866 .014251709 .2639923 .014251709 .2539978 .014251709 .20399475 .014251709 .1639862 .044281007 .14099121 .08131409 .11099243 .12934876 .11099243 .19540406 .11099243 .23144531Z"/>
<path id="font_1_5" d="M.17199707 .3773346V.69433596L.027999878 .68333438V.6523285C.09799194 .6523285 .10598755 .6453247 .10598755 .596344V0H.1309967C.13198853 .0009918213 .13999939 .01499939 .16699219 .062026979 .18199158 .039260866 .22399903-.0107421879 .2979889-.0107421879 .4169922-.0107421879 .5209961 .08728027 .5209961 .2163086 .5209961 .34335328 .4229889 .4423828 .30899049 .4423828 .23098755 .4423828 .18798828 .39535523 .17199707 .3773346M.1749878 .11407471V.32028199C.1749878 .33929444 .1749878 .3403015 .18598938 .35630799 .22499085 .41236878 .27999879 .42037965 .3039856 .42037965 .34899903 .42037965 .3849945 .39434815 .40899659 .35630799 .43499757 .3152771 .43798829 .2582245 .43798829 .21717835 .43798829 .18014527 .43598939 .12008667 .40699769 .075042728 .38598634 .044021608 .34799195 .010986328 .2939911 .010986328 .24899292 .010986328 .21299744 .035003663 .18899536 .07203674 .1749878 .093063358 .1749878 .096069339 .1749878 .11407471Z"/>
<path id="font_1_12" d="M.47099305 .21424866C.47099305 .34223939 .37098695 .4482422 .25 .4482422 .125 .4482422 .027999878 .3392334 .027999878 .21424866 .027999878 .085250858 .13198853-.0107421879 .24899292-.0107421879 .36999513-.0107421879 .47099305 .087249759 .47099305 .21424866M.25 .014251709C.20698548 .014251709 .16299439 .035247804 .13598633 .08125305 .11099243 .12524414 .11099243 .18624878 .11099243 .22224427 .11099243 .26124574 .11099243 .31523133 .1349945 .35923768 .1619873 .40522767 .20899964 .426239 .24899292 .426239 .29299928 .426239 .33599855 .40423585 .3619995 .36123658 .3880005 .3182373 .3880005 .26023866 .3880005 .22224427 .3880005 .18624878 .3880005 .13224793 .3659973 .08824158 .34399415 .04324341 .2999878 .014251709 .25 .014251709Z"/>
<path id="font_1_6" d="M.116989139 .21801758C.116989139 .38093568 .19898987 .42323304 .2519989 .42323304 .26098634 .42323304 .32398988 .42222596 .35899354 .38594056 .31799317 .38293458 .31199647 .3529358 .31199647 .3399353 .31199647 .31393434 .32998658 .2939453 .35798646 .2939453 .38398744 .2939453 .4039917 .3109436 .4039917 .34094239 .4039917 .40911866 .32798768 .4482422 .25099183 .4482422 .12599182 .4482422 .033996583 .3399353 .033996583 .21601868 .033996583 .08816528 .1329956-.0107421879 .24899292-.0107421879 .3829956-.0107421879 .4149933 .10914612 .4149933 .119140628 .4149933 .12911988 .40499879 .12911988 .4019928 .12911988 .3929901 .12911988 .3909912 .12512207 .3889923 .119140628 .3600006 .026229859 .29499818 .014251709 .2579956 .014251709 .20498657 .014251709 .116989139 .0572052 .116989139 .21801758Z"/>
<path id="font_1_9" d="M.10598755 .07595825C.10598755 .0309906 .09498596 .0309906 .027999878 .0309906V0C.06098938 .0009918213 .10798645 .0029907227 .13699341 .0029907227 .16699219 .0029907227 .20698548 .0019989014 .24699402 0V.0309906C.17999268 .0309906 .16899109 .0309906 .16899109 .07595825V.17886353L.23298645 .23381043C.30999757 .12789917 .35198976 .07196045 .35198976 .053970338 .35198976 .034988405 .33499146 .0309906 .31599427 .0309906V0C.34399415 .0009918213 .40299989 .0029907227 .42399598 .0029907227 .45298768 .0029907227 .48199464 .0019989014 .5109863 0V.0309906C.47399903 .0309906 .45199586 .0309906 .4139862 .0839386L.2869873 .26278688C.28599549 .26478578 .2809906 .2707672 .2809906 .2737732 .2809906 .277771 .35198976 .33770753 .3619995 .34570313 .4249878 .39666749 .46699525 .39865113 .48799134 .3996582V.43066407C.45899964 .42765809 .44599916 .42765809 .41799928 .42765809 .38198854 .42765809 .31999208 .42965699 .30599977 .43066407V.3996582C.32499696 .39865113 .33499146 .3876648 .33499146 .37467958 .33499146 .3547058 .32099916 .3427124 .31298829 .33570863L.17199707 .21382141V.69433596L.027999878 .68333438V.6523285C.09799194 .6523285 .10598755 .64530947 .10598755 .5961609V.07595825Z"/>
<path id="font_1_14" d="M.20799256 .19424439C.22999573 .19024658 .31199647 .17424011 .31199647 .102249149 .31199647 .051254274 .2769928 .011245728 .19898987 .011245728 .114990238 .011245728 .07899475 .06825256 .05999756 .15324402 .056991579 .1662445 .055999757 .17024231 .04598999 .17024231 .032989503 .17024231 .032989503 .16323853 .032989503 .14524842V.013244629C.032989503-.003753662 .032989503-.0107421879 .04399109-.0107421879 .04899597-.0107421879 .049987794-.009750366 .068984989 .009246826 .070999149 .011245728 .070999149 .013244629 .08898926 .03224182 .1329956-.009750366 .17799378-.0107421879 .19898987-.0107421879 .31399537-.0107421879 .3600006 .056243898 .3600006 .12825012 .3600006 .1812439 .32998658 .21124268 .31799317 .22323609 .2849884 .25523377 .24598694 .26324464 .20399475 .27124024 .147995 .28224183 .08099365 .2952423 .08099365 .35324098 .08099365 .38822938 .10699463 .42922975 .19299317 .42922975 .30299378 .42922975 .30799867 .3392334 .30999757 .3082428 .31098939 .2992401 .31999208 .2992401 .32199098 .2992401 .33499146 .2992401 .33499146 .304245 .33499146 .3232422V.4242401C.33499146 .4412384 .33499146 .4482422 .32398988 .4482422 .31900025 .4482422 .31698609 .4482422 .3039856 .43623353 .30099488 .43223573 .29100038 .42323304 .2869873 .42022706 .24899292 .4482422 .20799256 .4482422 .19299317 .4482422 .070999149 .4482422 .032989503 .38124085 .032989503 .3252411 .032989503 .29023744 .04899597 .26223756 .07598877 .24023438 .10798645 .21424866 .13598633 .2082367 .20799256 .19424439Z"/>
<path id="font_1_1" d="M.13598633 .07797241C.13598633 .041992189 .13398743 .0309906 .056991579 .0309906H.032989503V0H.6100006L.6519928 .2579193H.6269989C.60198977 .10397339 .57899478 .0309906 .40699769 .0309906H.27398683C.22698975 .0309906 .22499085 .037994386 .22499085 .07098389V.33789063H.31498719C.4119873 .33789063 .4229889 .30589295 .4229889 .220932H.44799806V.48576356H.4229889C.4229889 .39985658 .4119873 .36888124 .31498719 .36888124H.22499085V.6086426C.22499085 .6416168 .22698975 .64860537 .27398683 .64860537H.40299989C.55599978 .64860537 .58299258 .59365847 .598999 .45480348H.6239929L.59599307 .6796112H.032989503V.64860537H.056991579C.13398743 .64860537 .13598633 .637619 .13598633 .60165408V.07797241Z"/>
<path id="font_1_11" d="M.10998535 .34429933V.076034549C.10998535 .0309906 .09899902 .0309906 .03199768 .0309906V0C.066986087 .0009918213 .117996219 .0029907227 .14498902 .0029907227 .17098999 .0029907227 .22299195 .0009918213 .25698854 0V.0309906C.18998719 .0309906 .1789856 .0309906 .1789856 .076034549V.2602234C.1789856 .36431886 .25 .42037965 .31399537 .42037965 .3769989 .42037965 .3880005 .36631776 .3880005 .30926515V.076034549C.3880005 .0309906 .3769989 .0309906 .30999757 .0309906V0C.34498597 .0009918213 .3959961 .0029907227 .4229889 .0029907227 .44898988 .0029907227 .5009918 .0009918213 .5349884 0V.0309906C.48298646 .0309906 .45799256 .0309906 .45700074 .061019899V.25221253C.45700074 .3383026 .45700074 .36932374 .42599488 .405365 .4119873 .42237855 .3789978 .4423828 .32099916 .4423828 .24798584 .4423828 .20098877 .39935304 .17298889 .33729554V.4423828L.03199768 .43138124V.40037538C.101989749 .4003601 .10998535 .39335633 .10998535 .34429933Z"/>
<path id="font_1_7" d="M.37998963 .055252077V-.0107421879L.5269928 .00024414063V.03125C.45700074 .03125 .44898988 .038253786 .44898988 .087265018V.69433596L.30499269 .68333438V.6523285C.375 .6523285 .3829956 .6453247 .3829956 .596344V.38035584C.35398866 .41636659 .31098939 .4423828 .25698854 .4423828 .13899231 .4423828 .033996583 .3443451 .033996583 .21531677 .033996583 .088272098 .13198853-.0107421879 .24598694-.0107421879 .30999757-.0107421879 .35499574 .023254395 .37998963 .055252077M.37998963 .323349V.118270877C.37998963 .1002655 .37998963 .0982666 .36898805 .08126831 .33898927 .0332489 .2939911 .011245728 .25099183 .011245728 .20599365 .011245728 .16999817 .037246705 .1459961 .07527161 .11999512 .11627197 .116989139 .17329407 .116989139 .21430969 .116989139 .25131227 .11898804 .31134034 .147995 .35635377 .16899109 .38735963 .20698548 .42037965 .26098634 .42037965 .29599 .42037965 .33799745 .405365 .36898805 .36035157 .37998963 .34335328 .37998963 .34135438 .37998963 .323349Z"/>
</defs>
<path transform="matrix(1,0,0,-1,.199,31.381003)" d="M29.28703 14.17339H.85039C.38072 14.17339 0 13.79266 0 13.323V-13.323C0-13.79266 .38072-14.17339 .85039-14.17339H29.28703C29.7567-14.17339 30.13742-13.79266 30.13742-13.323V13.323C30.13742 13.79266 29.7567 14.17339 29.28703 14.17339ZM0-14.17339" fill="#b3b3ff"/>
<path transform="matrix(1,0,0,-1,.199,31.381003)" stroke-width=".3985" stroke-linecap="butt" stroke-miterlimit="10" stroke-linejoin="miter" fill="none" stroke="#000000" d="M29.28703 14.17339H.85039C.38072 14.17339 0 13.79266 0 13.323V-13.323C0-13.79266 .38072-14.17339 .85039-14.17339H29.28703C29.7567-14.17339 30.13742-13.79266 30.13742-13.323V13.323C30.13742 13.79266 29.7567 14.17339 29.28703 14.17339ZM0-14.17339"/>
<use data-text="S" xlink:href="#font_1_3" transform="matrix(9.9626,0,0,-9.9626,4.184,34.785005)"/>
<use data-text="t" xlink:href="#font_1_15" transform="matrix(9.9626,0,0,-9.9626,9.723206,34.785005)"/>
<use data-text="a" xlink:href="#font_1_4" transform="matrix(9.9626,0,0,-9.9626,13.598658,34.785005)"/>
<use data-text="r" xlink:href="#font_1_13" transform="matrix(9.9626,0,0,-9.9626,18.579958,34.785005)"/>
<use data-text="t" xlink:href="#font_1_15" transform="matrix(9.9626,0,0,-9.9626,22.485299,34.785005)"/>
<path transform="matrix(1,0,0,-1,44.908,14.373001)" d="M84.61224 14.17339H15.02379C14.55412 14.17339 14.17339 13.79266 14.17339 13.323V-13.323C14.17339-13.79266 14.55412-14.17339 15.02379-14.17339H84.61224C85.08191-14.17339 85.46265-13.79266 85.46265-13.323V13.323C85.46265 13.79266 85.08191 14.17339 84.61224 14.17339ZM14.17339-14.17339" fill="#7f807f"/>
<path transform="matrix(1,0,0,-1,44.908,14.373001)" stroke-width=".3985" stroke-linecap="butt" stroke-miterlimit="10" stroke-linejoin="miter" fill="none" stroke="#000000" d="M84.61224 14.17339H15.02379C14.55412 14.17339 14.17339 13.79266 14.17339 13.323V-13.323C14.17339-13.79266 14.55412-14.17339 15.02379-14.17339H84.61224C85.08191-14.17339 85.46265-13.79266 85.46265-13.323V13.323C85.46265 13.79266 85.08191 14.17339 84.61224 14.17339ZM14.17339-14.17339"/>
<use data-text="P" xlink:href="#font_1_2" transform="matrix(9.9626,0,0,-9.9626,63.066,17.832)"/>
<use data-text="a" xlink:href="#font_1_4" transform="matrix(9.9626,0,0,-9.9626,69.57158,17.832)"/>
<use data-text="r" xlink:href="#font_1_13" transform="matrix(9.9626,0,0,-9.9626,74.55288,17.832)"/>
<use data-text="a" xlink:href="#font_1_4" transform="matrix(9.9626,0,0,-9.9626,78.45822,17.832)"/>
<use data-text="l" xlink:href="#font_1_10" transform="matrix(9.9626,0,0,-9.9626,83.43952,17.832)"/>
<use data-text="l" xlink:href="#font_1_10" transform="matrix(9.9626,0,0,-9.9626,86.20912,17.832)"/>
<use data-text="e" xlink:href="#font_1_8" transform="matrix(9.9626,0,0,-9.9626,88.97872,17.832)"/>
<use data-text="l" xlink:href="#font_1_10" transform="matrix(9.9626,0,0,-9.9626,93.402118,17.832)"/>
<use data-text="b" xlink:href="#font_1_5" transform="matrix(9.9626,0,0,-9.9626,99.49922,17.832)"/>
<use data-text="l" xlink:href="#font_1_10" transform="matrix(9.9626,0,0,-9.9626,105.028469,17.832)"/>
<use data-text="o" xlink:href="#font_1_12" transform="matrix(9.9626,0,0,-9.9626,107.798069,17.832)"/>
<use data-text="c" xlink:href="#font_1_6" transform="matrix(9.9626,0,0,-9.9626,113.05832,17.832)"/>
<use data-text="k" xlink:href="#font_1_9" transform="matrix(9.9626,0,0,-9.9626,117.20276,17.832)"/>
<use data-text="s" xlink:href="#font_1_14" transform="matrix(9.9626,0,0,-9.9626,122.46301,17.832)"/>
<path transform="matrix(1,0,0,-1,44.908,14.373001)" stroke-width=".79701" stroke-linecap="butt" stroke-miterlimit="10" stroke-linejoin="miter" fill="none" stroke="#000000" d="M0 0V0H9.51091"/>
<path transform="matrix(1,0,0,-1,54.41891,14.373001)" d="M4.66248 0C3.28098 .25902 1.0361 1.0361-.51805 1.94269V-1.94269C1.0361-1.0361 3.28098-.25902 4.66248 0"/>
<path transform="matrix(1,0,0,-1,44.908,14.373001)" d="M84.61224-19.8427H15.02379C14.55412-19.8427 14.17339-20.22343 14.17339-20.6931V-47.3391C14.17339-47.80876 14.55412-48.18948 15.02379-48.18948H84.61224C85.08191-48.18948 85.46265-47.80876 85.46265-47.3391V-20.6931C85.46265-20.22343 85.08191-19.8427 84.61224-19.8427ZM14.17339-48.18948" fill="#7f807f"/>
<path transform="matrix(1,0,0,-1,44.908,14.373001)" stroke-width=".3985" stroke-linecap="butt" stroke-miterlimit="10" stroke-linejoin="miter" fill="none" stroke="#000000" d="M84.61224-19.8427H15.02379C14.55412-19.8427 14.17339-20.22343 14.17339-20.6931V-47.3391C14.17339-47.80876 14.55412-48.18948 15.02379-48.18948H84.61224C85.08191-48.18948 85.46265-47.80876 85.46265-47.3391V-20.6931C85.46265-20.22343 85.08191-19.8427 84.61224-19.8427ZM14.17339-48.18948"/>
<use data-text="P" xlink:href="#font_1_2" transform="matrix(9.9626,0,0,-9.9626,63.066,51.848)"/>
<use data-text="a" xlink:href="#font_1_4" transform="matrix(9.9626,0,0,-9.9626,69.57158,51.848)"/>
<use data-text="r" xlink:href="#font_1_13" transform="matrix(9.9626,0,0,-9.9626,74.55288,51.848)"/>
<use data-text="a" xlink:href="#font_1_4" transform="matrix(9.9626,0,0,-9.9626,78.45822,51.848)"/>
<use data-text="l" xlink:href="#font_1_10" transform="matrix(9.9626,0,0,-9.9626,83.43952,51.848)"/>
<use data-text="l" xlink:href="#font_1_10" transform="matrix(9.9626,0,0,-9.9626,86.20912,51.848)"/>
<use data-text="e" xlink:href="#font_1_8" transform="matrix(9.9626,0,0,-9.9626,88.97872,51.848)"/>
<use data-text="l" xlink:href="#font_1_10" transform="matrix(9.9626,0,0,-9.9626,93.402118,51.848)"/>
<use data-text="b" xlink:href="#font_1_5" transform="matrix(9.9626,0,0,-9.9626,99.49922,51.848)"/>
<use data-text="l" xlink:href="#font_1_10" transform="matrix(9.9626,0,0,-9.9626,105.028469,51.848)"/>
<use data-text="o" xlink:href="#font_1_12" transform="matrix(9.9626,0,0,-9.9626,107.798069,51.848)"/>
<use data-text="c" xlink:href="#font_1_6" transform="matrix(9.9626,0,0,-9.9626,113.05832,51.848)"/>
<use data-text="k" xlink:href="#font_1_9" transform="matrix(9.9626,0,0,-9.9626,117.20276,51.848)"/>
<use data-text="s" xlink:href="#font_1_14" transform="matrix(9.9626,0,0,-9.9626,122.46301,51.848)"/>
<path transform="matrix(1,0,0,-1,44.908,14.373001)" stroke-width=".79701" stroke-linecap="butt" stroke-miterlimit="10" stroke-linejoin="miter" fill="none" stroke="#000000" d="M0 0V0-34.0161H9.51091"/>
<path transform="matrix(1,0,0,-1,54.41891,48.389104)" d="M4.66248 0C3.28098 .25902 1.0361 1.0361-.51805 1.94269V-1.94269C1.0361-1.0361 3.28098-.25902 4.66248 0"/>
<path transform="matrix(1,0,0,-1,44.908,14.373001)" stroke-width=".79701" stroke-linecap="butt" stroke-miterlimit="10" stroke-linejoin="miter" fill="none" stroke="#000000" d="M85.46265 0H99.63603V-34.0161H85.46265"/>
<path transform="matrix(1,0,0,-1,.199,31.381003)" stroke-width=".79701" stroke-linecap="butt" stroke-miterlimit="10" stroke-linejoin="miter" fill="none" stroke="#000000" d="M30.13742 0H44.31082"/>
<path transform="matrix(1,0,0,-1,.199,31.381003)" d="M183.8871 14.17339H159.76769C159.29802 14.17339 158.91728 13.79266 158.91728 13.323V-13.323C158.91728-13.79266 159.29802-14.17339 159.76769-14.17339H183.8871C184.35677-14.17339 184.7375-13.79266 184.7375-13.323V13.323C184.7375 13.79266 184.35677 14.17339 183.8871 14.17339ZM158.91728-14.17339" fill="#80ff80"/>
<path transform="matrix(1,0,0,-1,.199,31.381003)" stroke-width=".3985" stroke-linecap="butt" stroke-miterlimit="10" stroke-linejoin="miter" fill="none" stroke="#000000" d="M183.8871 14.17339H159.76769C159.29802 14.17339 158.91728 13.79266 158.91728 13.323V-13.323C158.91728-13.79266 159.29802-14.17339 159.76769-14.17339H183.8871C184.35677-14.17339 184.7375-13.79266 184.7375-13.323V13.323C184.7375 13.79266 184.35677 14.17339 183.8871 14.17339ZM158.91728-14.17339"/>
<use data-text="E" xlink:href="#font_1_1" transform="matrix(9.9626,0,0,-9.9626,163.099,34.840005)"/>
<use data-text="n" xlink:href="#font_1_11" transform="matrix(9.9626,0,0,-9.9626,169.88353,34.840005)"/>
<use data-text="d" xlink:href="#font_1_7" transform="matrix(9.9626,0,0,-9.9626,175.42273,34.840005)"/>
<path transform="matrix(1,0,0,-1,.199,31.381003)" stroke-width=".79701" stroke-linecap="butt" stroke-miterlimit="10" stroke-linejoin="miter" fill="none" stroke="#000000" d="M144.74388 0H151.83057 154.2548"/>
<path transform="matrix(1,0,0,-1,154.45381,31.381003)" d="M4.66248 0C3.28098 .25902 1.0361 1.0361-.51805 1.94269V-1.94269C1.0361-1.0361 3.28098-.25902 4.66248 0"/>
</svg>
